<svg width="45" height="45" viewBox="0 0 45 45" fill="none" xmlns="http://www.w3.org/2000/svg">
<path d="M9.98118 2.02735C8.88116 2.36549 8.59862 2.67187 8.29942 3.84973C7.81729 5.74648 7.84246 7.93257 8.36855 9.86882C9.16724 12.8071 12.8392 15.9173 15.5097 15.9173C15.9195 15.9173 16.0889 16.264 16.0889 17.1014C16.0889 18.6488 16.793 21.6781 17.2198 21.9663C17.8735 22.4078 17.9394 21.7323 17.4857 19.2391C16.9355 16.2144 17.3822 13.4249 18.7665 11.2407C19.7233 9.73132 22.2215 7.98369 22.9727 8.29859C23.6072 8.56469 24.73 13.6836 24.4038 14.8243C24.2624 15.3189 23.692 16.2934 23.1365 16.9895C21.5327 18.9985 21.471 20.0742 22.6905 24.7732C22.905 25.5986 22.8447 25.6602 22.0786 25.4003C21.6114 25.2415 20.7815 24.767 20.2338 24.3456C19.6864 23.9242 19.1483 23.6783 19.038 23.7987C18.2702 24.6377 21.2338 26.7626 23.1716 26.7626C24.1844 26.7626 24.2379 26.833 23.9834 27.8277C23.4708 29.8302 23.7926 32.5705 24.7204 34.102C25.8619 35.9868 27.5472 36.8339 30.1454 36.8296C34.7961 36.8215 38.7772 32.3509 38.7772 27.1367C38.7772 23.2135 36.301 20.4758 32.752 20.4758H31.1043L31.1298 17.3001C31.1521 14.5009 31.0284 13.8529 30.0872 11.8403C28.3349 8.09253 24.8243 6.17138 21.8198 7.31555C20.8077 7.70133 20.7237 7.64323 19.7056 5.85416C17.7934 2.49292 13.7017 0.882796 9.98118 2.02735ZM25.9441 8.71729C29.0797 10.5071 30.9182 15.3414 29.9514 19.2557C29.6586 20.4425 29.2006 21.1095 28.1644 21.859C27.398 22.4129 26.3217 23.4815 25.7726 24.2333C25.2234 24.9855 24.6055 25.6006 24.3996 25.6006C23.8738 25.6006 22.7029 20.4317 22.9982 19.4149C23.1322 18.9544 23.7147 17.9892 24.2929 17.2695C25.63 15.6052 25.8775 13.9032 25.1635 11.2768C24.5729 9.10385 24.4612 8.17077 24.792 8.17077C24.8991 8.17077 25.4173 8.41673 25.9441 8.71729ZM34.9896 22.1669C35.4154 22.409 35.821 22.66 35.8904 22.725C36.1549 22.9718 33.7312 27.1696 33.0019 27.7274C32.5819 28.0489 31.7077 28.3119 31.0589 28.3119C29.2488 28.3119 27.9283 29.2798 26.8343 31.4078C26.2862 32.4741 25.7243 33.3464 25.5857 33.3468C25.1238 33.3475 24.5924 30.3725 24.8165 29.042C25.2922 26.2187 27.5305 23.2022 29.9252 22.1584C31.1351 21.6308 34.0541 21.6359 34.9896 22.1669ZM37.7137 27.2394C37.7137 30.3674 35.8826 33.3483 32.9605 34.977C31.8895 35.5739 31.0844 35.7164 29.4941 35.5909C26.6574 35.3667 26.3419 34.9333 27.4121 32.7294C28.4639 30.563 29.6845 29.4739 31.061 29.4739C32.9034 29.4739 34.286 28.4424 35.5576 26.1196C36.664 24.0985 36.7927 23.9854 37.2347 24.6458C37.4981 25.0393 37.7137 26.2064 37.7137 27.2394ZM11.9189 7.78344C11.4502 7.78344 11.1259 8.02127 11.1259 8.36444C11.1259 8.78004 11.5137 8.94543 12.4889 8.94543C13.3826 8.94543 14.064 9.20146 14.4678 9.6891C15.0573 10.4006 15.0495 10.4382 14.2849 10.5606C13.8453 10.6307 13.4199 10.9065 13.3398 11.1726C13.2373 11.5119 13.673 11.6567 14.7978 11.6567C16.6558 11.6567 16.8773 11.9 16.5668 13.5969C16.347 14.798 16.2885 14.8348 14.9145 14.6334C11.6842 14.16 8.99885 10.6125 8.99885 6.81861C8.99885 5.71627 9.11088 4.69179 9.24772 4.54228C9.38455 4.39277 10.2198 5.06091 11.1043 6.02691C12.5258 7.5801 12.6201 7.78344 11.9189 7.78344ZM14.7691 3.15874C16.3261 3.63128 18.3755 5.47342 19.1391 7.08664C19.645 8.15606 19.6223 8.27574 18.6779 9.51868C18.1312 10.2379 17.5736 10.8387 17.4385 10.8542C17.3038 10.8697 17.1443 10.1415 17.084 9.23593C16.9734 7.56189 16.3591 7.10485 16.1527 8.54261C15.8876 10.3925 14.6709 8.91057 14.6709 6.73766C14.6709 5.51525 14.5295 5.07214 14.1392 5.07214C13.8439 5.07214 13.6074 5.41648 13.6074 5.8468C13.6074 6.9716 13.2135 6.81319 11.6435 5.05626C10.4892 3.76491 10.3371 3.42716 10.7739 3.12543C11.4729 2.64282 13.1136 2.65637 14.7691 3.15874Z" fill="white"/>
<path d="M8.28993 18.435C8.28993 18.7545 8.53702 19.016 8.83941 19.016C9.82529 19.016 11.6244 20.226 13.3398 22.043L15.022 23.8247L13.8716 25.1273C13.2388 25.8438 11.9686 26.7854 11.0483 27.22C10.1284 27.6542 9.19179 28.2519 8.96668 28.5482C8.079 29.7167 4.84274 28.7511 2.90821 26.7401C1.02012 24.7779 1.14491 24.4386 3.75228 24.4386C5.4617 24.4386 5.85555 24.542 5.5248 24.9034C5.29083 25.159 5.0994 25.5948 5.0994 25.8717C5.0994 26.682 5.97254 26.4531 6.87192 25.4069C7.32993 24.8743 7.99569 24.4386 8.35161 24.4386C9.04821 24.4386 9.22298 25.0161 8.64443 25.4069C8.44946 25.5386 8.28993 25.8101 8.28993 26.0108C8.28993 26.6588 9.22511 26.3977 9.91887 25.556C10.2904 25.1056 10.9629 24.5831 11.4131 24.3948C12.2962 24.0261 12.1618 23.2766 11.2132 23.2766C10.8941 23.2766 10.1872 22.8099 9.64236 22.2397C8.56751 21.1145 7.87303 21.2962 8.57211 22.5194C8.9525 23.1848 8.91031 23.2766 8.22364 23.2766C7.79398 23.2766 6.9967 22.8099 6.45183 22.2397C5.37697 21.1145 4.6825 21.2962 5.38158 22.5194C5.79316 23.239 5.70914 23.2766 3.68422 23.2766C2.51294 23.2766 1.55436 23.1225 1.55436 22.9342C1.55436 22.4129 4.3124 19.8038 5.29508 19.3956C6.28131 18.9862 6.46069 18.2413 5.57372 18.2413C3.57716 18.2413 -0.390095 22.6689 0.031055 24.4274C0.483047 26.3164 4.28049 29.8465 5.88285 29.867C7.10376 29.8829 7.20798 30.467 6.32952 32.3633C4.22661 36.9021 5.92574 41.722 10.1121 43.0924C13.0803 44.0642 17.3241 42.1326 19.3955 38.8666C22.6342 33.7601 20.8699 27.1817 16.0724 26.4787C15.3017 26.3656 14.671 26.1219 14.671 25.9368C14.671 25.752 14.8341 25.6006 15.0329 25.6006C15.2322 25.6006 15.5796 25.1583 15.8051 24.6175C16.1844 23.7077 16.0709 23.4726 14.291 21.4748C11.7258 18.5957 8.28993 16.8555 8.28993 18.435ZM17.4436 28.1519L18.2472 28.767L17.3021 30.5727C15.7767 33.4878 15.0248 34.1361 12.7847 34.4685C10.5059 34.8062 9.77637 35.3907 8.59516 37.8231C7.63233 39.8066 7.34234 39.9283 6.86305 38.5509C5.67476 35.1355 7.77519 30.2129 11.2153 28.3522C13.0672 27.3505 16.2624 27.2479 17.4436 28.1519ZM19.907 32.5566C20.1502 35.3233 19.2799 37.5749 17.1632 39.654C14.6246 42.148 11.8694 42.8615 9.5073 41.6368L8.31333 41.0174L9.19994 39.106C10.4343 36.4442 11.2351 35.6711 12.7563 35.6711C14.7618 35.6711 16.3545 34.625 17.4028 32.619C19.1803 29.2182 19.6124 29.2074 19.907 32.5566Z" fill="white"/>
<path d="M40.0873 4.99071C38.9564 5.24944 39.6711 6.03417 41.2192 6.23403L42.7198 6.4277L41.3284 7.90768C40.0384 9.2796 39.9228 9.32918 39.7448 8.58551C39.4233 7.24264 38.7774 7.69 38.7774 9.2552C38.7774 10.6333 38.2939 11.6566 37.643 11.6566C37.487 11.6566 37.3594 11.3952 37.3594 11.0756C37.3594 10.3738 36.6833 10.2983 36.4916 10.9788C36.4164 11.2453 36.2611 12.1958 36.1466 13.0909L35.9382 14.7192L37.8011 14.4938C39.9292 14.2359 40.7733 13.6859 39.569 13.3419C38.0039 12.8945 39.0372 11.6566 40.9753 11.6566C42.421 11.6566 42.778 11.0412 41.6067 10.5679C40.942 10.299 40.9891 10.1743 42.2668 8.81093L43.6423 7.34373L43.8659 8.56575C44.2286 10.5466 43.4267 13.1614 41.9679 14.7553C40.4436 16.4208 38.3406 17.1265 35.8527 16.8073C34.2057 16.5959 34.1674 16.5606 34.105 15.1891C33.9374 11.4963 34.7871 8.76135 36.4777 7.55095C37.3356 6.93665 37.6901 5.8467 37.0322 5.8467C36.3622 5.8467 34.4673 7.93324 33.7342 9.4783C33.1287 10.7542 32.9862 11.6923 33.0263 14.139C33.0539 15.8239 33.2181 17.3573 33.3907 17.546C33.8718 18.0716 37.3402 18.2281 39.1596 17.8066C42.0268 17.1428 44.3626 14.3187 44.9447 10.8123C45.1819 9.3834 44.6136 6.00318 44.0751 5.63948C43.5692 5.29786 40.7495 4.83926 40.0873 4.99071Z" fill="white"/>
<path d="M22.2226 37.9998C21.3484 38.3844 20.343 40.2463 20.343 41.4811C20.343 42.5943 21.2562 44.4338 21.9542 44.7266C24.183 45.6608 26.0236 44.1181 26.0037 41.332C25.9917 39.6084 25.5659 38.7633 24.3546 38.0583C23.4616 37.5389 23.2811 37.5339 22.2226 37.9998ZM24.3032 39.4109C25.048 40.1476 25.1884 42.6168 24.5262 43.3403C23.2188 44.7688 21.1385 42.9216 21.5802 40.7247C21.9457 38.9066 23.1876 38.3078 24.3032 39.4109Z" fill="white"/>
<path d="M29.6414 0.296296C29.0246 0.567426 28.1419 2.51492 28.1436 3.6006C28.1454 4.94928 29.377 6.87469 30.4199 7.16093C32.264 7.66639 33.7859 6.09693 33.8029 3.67225C33.8228 0.878838 31.8876 -0.691006 29.6414 0.296296ZM32.3254 1.66395C33.0188 2.42157 32.8447 4.85942 32.0404 5.65499C30.4132 7.26395 28.4351 4.28501 29.7145 2.1516C30.3274 1.12944 31.6157 0.888521 32.3254 1.66395Z" fill="white"/>
</svg>
