<svg width="45" height="45" viewBox="0 0 45 45" fill="none" xmlns="http://www.w3.org/2000/svg">
<g clip-path="url(#clip0_27_278)">
<path d="M32.2506 26.2642C32.3134 26.2638 32.3761 26.2634 32.4408 26.2629C32.6489 26.2616 32.857 26.261 33.0651 26.2605C33.2096 26.26 33.3541 26.2595 33.4986 26.259C33.8019 26.2581 34.1052 26.2576 34.4085 26.2573C34.7969 26.2568 35.1852 26.2547 35.5735 26.2522C35.8722 26.2505 36.1708 26.2501 36.4695 26.25C36.6126 26.2497 36.7558 26.249 36.8989 26.2478C37.0994 26.2463 37.2999 26.2465 37.5004 26.2471C37.6714 26.2466 37.6714 26.2466 37.8459 26.2461C38.1746 26.2816 38.3306 26.3315 38.584 26.5421C38.9376 27.0233 38.8848 27.5576 38.8818 28.1294C38.8822 28.2358 38.8827 28.3422 38.8832 28.4518C38.8841 28.7425 38.8839 29.0332 38.8831 29.324C38.8824 29.6288 38.883 29.9337 38.8834 30.2385C38.8839 30.7504 38.8833 31.2622 38.882 31.7741C38.8806 32.3651 38.8811 32.9561 38.8825 33.5471C38.8837 34.0554 38.8839 34.5636 38.8832 35.0719C38.8828 35.3751 38.8827 35.6783 38.8836 35.9815C38.8845 36.3196 38.8832 36.6576 38.8818 36.9957C38.8823 37.0957 38.8828 37.1957 38.8834 37.2988C38.8794 37.7908 38.8697 38.1619 38.584 38.5831C38.2083 38.9235 37.8765 38.9462 37.3824 38.9502C37.3232 38.9508 37.264 38.9514 37.203 38.952C37.0072 38.9537 36.8115 38.9547 36.6157 38.9556C36.5487 38.9559 36.4818 38.9563 36.4127 38.9567C36.0582 38.9585 35.7038 38.9598 35.3493 38.9606C34.9837 38.9616 34.6181 38.9646 34.2525 38.9681C33.9709 38.9704 33.6893 38.9711 33.4077 38.9714C33.2729 38.9718 33.1382 38.9729 33.0035 38.9745C32.8146 38.9766 32.6258 38.9766 32.4368 38.9759C32.3295 38.9765 32.2222 38.977 32.1116 38.9775C31.6916 38.9165 31.4283 38.7356 31.1443 38.4244C30.9976 38.1865 30.9918 38.0408 30.9907 37.7624C30.9897 37.6672 30.9887 37.5721 30.9877 37.4741C30.9879 37.3702 30.9882 37.2663 30.9885 37.1592C30.9877 37.0494 30.987 36.9396 30.9862 36.8265C30.9845 36.5256 30.984 36.2247 30.9842 35.9238C30.9842 35.6724 30.9834 35.421 30.9827 35.1696C30.981 34.5764 30.9808 33.9831 30.9813 33.3899C30.9819 32.7784 30.9799 32.1669 30.9767 31.5555C30.974 31.03 30.973 30.5046 30.9733 29.9792C30.9735 29.6656 30.973 29.352 30.9709 29.0384C30.9685 28.6885 30.9698 28.3386 30.9713 27.9887C30.9701 27.8851 30.969 27.7816 30.9678 27.6749C30.9758 26.892 30.9758 26.892 31.2375 26.567C31.592 26.254 31.7814 26.2667 32.2506 26.2642ZM32.4316 27.5968C32.4316 29.0179 32.4316 30.4391 32.4316 31.9034C33.0117 31.9034 33.5918 31.9034 34.1894 31.9034C34.1894 30.4822 34.1894 29.061 34.1894 27.5968C33.6094 27.5968 33.0293 27.5968 32.4316 27.5968ZM35.5957 27.5968C35.5957 29.0179 35.5957 30.4391 35.5957 31.9034C36.2048 31.9034 36.8139 31.9034 37.4414 31.9034C37.4414 30.4822 37.4414 29.061 37.4414 27.5968C36.8323 27.5968 36.2232 27.5968 35.5957 27.5968ZM32.4316 33.3096C32.4316 34.7018 32.4316 36.094 32.4316 37.5284C33.0117 37.5284 33.5918 37.5284 34.1894 37.5284C34.1894 36.1362 34.1894 34.744 34.1894 33.3096C33.6094 33.3096 33.0293 33.3096 32.4316 33.3096ZM35.5957 33.3096C35.5957 34.7018 35.5957 36.094 35.5957 37.5284C36.2048 37.5284 36.8139 37.5284 37.4414 37.5284C37.4414 36.1362 37.4414 34.744 37.4414 33.3096C36.8323 33.3096 36.2232 33.3096 35.5957 33.3096Z" fill="white"/>
<path d="M7.49412 26.2414C7.5881 26.2403 7.5881 26.2403 7.68398 26.2391C7.89022 26.2371 8.09641 26.237 8.30267 26.2371C8.44659 26.2365 8.59052 26.2358 8.73445 26.2351C9.03581 26.2339 9.33715 26.2338 9.63851 26.2343C10.024 26.2348 10.4094 26.2321 10.7949 26.2286C11.0921 26.2263 11.3892 26.226 11.6864 26.2263C11.8285 26.2262 11.9706 26.2254 12.1126 26.2238C12.3117 26.2218 12.5105 26.2227 12.7095 26.2242C12.8226 26.2241 12.9356 26.2239 13.0521 26.2237C13.4563 26.2955 13.5983 26.4307 13.8868 26.7178C13.9977 26.9395 13.9868 27.0933 13.9882 27.3416C13.989 27.4364 13.9897 27.5313 13.9905 27.6291C13.9909 27.7336 13.9913 27.8382 13.9917 27.9459C13.9927 28.1106 13.9927 28.1106 13.9938 28.2785C13.996 28.6431 13.9975 29.0077 13.9987 29.3723C13.9992 29.4979 13.9997 29.6234 14.0002 29.7489C14.0021 30.2711 14.0037 30.7933 14.0047 31.3155C14.0061 32.0638 14.009 32.812 14.014 33.5602C14.0174 34.0864 14.0192 34.6125 14.0196 35.1387C14.0199 35.4529 14.021 35.7671 14.0239 36.0813C14.027 36.4321 14.0266 36.7828 14.026 37.1336C14.0274 37.2374 14.0289 37.3413 14.0304 37.4483C14.0244 38.2335 14.0244 38.2335 13.7737 38.5527C13.3628 38.9077 13.1333 38.9566 12.5874 38.9587C12.4986 38.9594 12.4986 38.9594 12.4079 38.9601C12.2126 38.9613 12.0174 38.9612 11.8221 38.961C11.6859 38.9613 11.5497 38.9617 11.4136 38.9621C11.1282 38.9628 10.8429 38.9628 10.5576 38.9623C10.1927 38.9618 9.82782 38.9633 9.46294 38.9653C9.18169 38.9666 8.90045 38.9667 8.61919 38.9664C8.48471 38.9665 8.35022 38.9669 8.21574 38.9678C8.02727 38.9689 7.83887 38.9683 7.65039 38.9673C7.54333 38.9673 7.43627 38.9674 7.32596 38.9675C6.92125 38.9223 6.62001 38.7989 6.3447 38.4951C6.1663 38.1946 6.14121 37.9523 6.14009 37.6104C6.13959 37.5184 6.13909 37.4263 6.13857 37.3315C6.13847 37.2305 6.13837 37.1296 6.13827 37.0256C6.13784 36.9192 6.1374 36.8129 6.13695 36.7033C6.13589 36.4115 6.13523 36.1197 6.13484 35.8278C6.13458 35.6454 6.13422 35.463 6.13383 35.2806C6.13263 34.7097 6.13178 34.1388 6.13144 33.5678C6.13104 32.9092 6.1295 32.2506 6.12696 31.592C6.12505 31.0826 6.12417 30.5733 6.12405 30.0639C6.12396 29.7598 6.12344 29.4557 6.12187 29.1516C6.12015 28.8123 6.12054 28.4729 6.12111 28.1335C6.1203 28.0331 6.11949 27.9327 6.11865 27.8292C6.12335 26.9395 6.12335 26.9395 6.41611 26.542C6.76178 26.2558 7.05394 26.2443 7.49412 26.2414ZM7.55868 27.5967C7.55868 29.0179 7.55868 30.4391 7.55868 31.9033C8.16777 31.9033 8.77685 31.9033 9.40439 31.9033C9.40439 30.4821 9.40439 29.0609 9.40439 27.5967C8.79531 27.5967 8.18622 27.5967 7.55868 27.5967ZM10.8106 27.5967C10.8106 29.0179 10.8106 30.4391 10.8106 31.9033C11.3907 31.9033 11.9708 31.9033 12.5685 31.9033C12.5685 30.4821 12.5685 29.0609 12.5685 27.5967C11.9884 27.5967 11.4083 27.5967 10.8106 27.5967ZM7.55868 33.3096C7.55868 34.7017 7.55868 36.0939 7.55868 37.5283C8.16777 37.5283 8.77685 37.5283 9.40439 37.5283C9.40439 36.1361 9.40439 34.7439 9.40439 33.3096C8.79531 33.3096 8.18622 33.3096 7.55868 33.3096ZM10.8106 33.3096C10.8106 34.7017 10.8106 36.0939 10.8106 37.5283C11.3907 37.5283 11.9708 37.5283 12.5685 37.5283C12.5685 36.1361 12.5685 34.7439 12.5685 33.3096C11.9884 33.3096 11.4083 33.3096 10.8106 33.3096Z" fill="white"/>
<path d="M19.9682 24.5633C20.0597 24.5623 20.0597 24.5623 20.1529 24.5614C20.353 24.5598 20.553 24.5609 20.7531 24.5621C20.8929 24.5618 21.0328 24.5615 21.1727 24.561C21.4652 24.5605 21.7578 24.5613 22.0503 24.5629C22.4245 24.5649 22.7986 24.5638 23.1727 24.5617C23.4614 24.5604 23.75 24.5608 24.0386 24.5617C24.1765 24.5619 24.3145 24.5616 24.4524 24.5608C24.6455 24.5599 24.8385 24.5613 25.0316 24.5633C25.1412 24.5635 25.2509 24.5638 25.3639 24.5641C25.7213 24.6173 25.9109 24.7364 26.1913 24.9603C26.5235 25.4218 26.4933 25.8969 26.49 26.4435C26.4903 26.5351 26.4905 26.6267 26.4908 26.7212C26.4909 26.9144 26.4905 27.1077 26.4894 27.3009C26.4879 27.596 26.4893 27.891 26.491 28.1862C26.4909 28.3743 26.4905 28.5624 26.49 28.7506C26.4905 28.8385 26.4911 28.9264 26.4916 29.017C26.4869 29.4817 26.4786 29.8477 26.1913 30.2337C25.6212 30.7285 24.9031 30.6348 24.1887 30.6289C24.0529 30.6289 23.9171 30.6291 23.7813 30.6293C23.4976 30.6294 23.2138 30.6283 22.9301 30.6263C22.5672 30.6238 22.2045 30.6241 21.8417 30.6252C21.5615 30.6258 21.2814 30.6251 21.0013 30.624C20.8676 30.6236 20.7338 30.6236 20.6001 30.6239C20.4129 30.6242 20.2258 30.6227 20.0386 30.6208C19.9323 30.6203 19.8261 30.6199 19.7166 30.6194C19.3133 30.5725 19.0116 30.4487 18.7371 30.1459C18.5665 29.8586 18.5334 29.6245 18.5307 29.2976C18.5298 29.2148 18.529 29.1321 18.5281 29.0468C18.5277 28.9576 18.5274 28.8683 18.527 28.7763C18.5265 28.6843 18.526 28.5923 18.5255 28.4975C18.5246 28.3027 18.524 28.1079 18.5237 27.913C18.5229 27.6156 18.5201 27.3182 18.5174 27.0208C18.5168 26.8314 18.5163 26.6421 18.516 26.4527C18.5149 26.364 18.5138 26.2753 18.5127 26.1838C18.5142 25.7143 18.5236 25.3542 18.8085 24.9603C19.2035 24.6451 19.466 24.5645 19.9682 24.5633ZM19.9511 26.015C19.9511 27.0591 19.9511 28.1033 19.9511 29.1791C21.6333 29.1791 23.3155 29.1791 25.0487 29.1791C25.0487 28.1349 25.0487 27.0908 25.0487 26.015C23.3665 26.015 21.6843 26.015 19.9511 26.015Z" fill="white"/>
<path d="M19.6727 38.351C19.7746 38.3499 19.7746 38.3499 19.8786 38.3487C20.1024 38.3468 20.3261 38.3481 20.5499 38.3495C20.7059 38.3492 20.8619 38.3488 21.0178 38.3483C21.3444 38.3476 21.6709 38.3486 21.9975 38.3506C22.4157 38.3531 22.8338 38.3517 23.252 38.349C23.574 38.3475 23.8959 38.348 24.2179 38.3491C24.3721 38.3494 24.5263 38.349 24.6804 38.348C24.8961 38.3469 25.1116 38.3486 25.3273 38.351C25.3907 38.3501 25.4542 38.3493 25.5196 38.3483C25.8599 38.3555 26.0055 38.3999 26.2749 38.6147C26.4551 38.8474 26.4551 38.8474 26.51 39.111C26.4351 39.4705 26.3011 39.5865 26.0156 39.8142C25.7683 39.8577 25.574 39.8745 25.3273 39.871C25.2593 39.8718 25.1914 39.8726 25.1214 39.8733C24.8976 39.8753 24.6739 39.874 24.4501 39.8725C24.2941 39.8728 24.1381 39.8732 23.9822 39.8738C23.6556 39.8744 23.3291 39.8735 23.0025 39.8714C22.5843 39.8689 22.1662 39.8704 21.748 39.873C21.426 39.8746 21.1041 39.8741 20.7821 39.873C20.6279 39.8727 20.4737 39.873 20.3196 39.874C20.1039 39.8752 19.8884 39.8735 19.6727 39.871C19.5775 39.8723 19.5775 39.8723 19.4804 39.8737C19.1401 39.8666 18.9945 39.8222 18.7251 39.6074C18.5449 39.3747 18.5449 39.3747 18.49 39.111C18.6237 38.4693 19.0844 38.3428 19.6727 38.351Z" fill="white"/>
<path d="M19.0721 31.8486C19.1592 31.8515 19.1592 31.8515 19.2479 31.8545C19.3059 31.8544 19.3639 31.8542 19.4237 31.8541C19.6833 31.9276 19.7838 32.0448 19.9511 32.2555C19.9965 32.5399 19.9965 32.5399 19.9977 32.8735C19.9981 32.9326 19.9984 32.9917 19.9988 33.0527C19.999 33.1774 19.9984 33.3021 19.9969 33.4268C19.995 33.6172 19.9969 33.8074 19.9991 33.9978C19.9989 34.1193 19.9984 34.2407 19.9977 34.3621C19.9973 34.4722 19.997 34.5822 19.9965 34.6956C19.9432 35.0292 19.8694 35.1342 19.5995 35.3316C19.2974 35.3811 19.2974 35.3811 18.9843 35.3316C18.6995 35.1068 18.5615 34.9753 18.4893 34.6153C18.4894 34.5136 18.4895 34.4119 18.4895 34.3072C18.4894 34.1956 18.4892 34.084 18.489 33.969C18.4911 33.8531 18.4932 33.7372 18.4954 33.6178C18.4944 33.5019 18.4934 33.386 18.4924 33.2666C18.5019 32.028 18.5019 32.028 19.0721 31.8486Z" fill="white"/>
<path d="M17.3826 1.28552C17.5777 1.28513 17.7725 1.28194 17.9676 1.27861C18.0923 1.27809 18.217 1.27774 18.3418 1.27758C18.4545 1.27686 18.5672 1.27613 18.6834 1.27539C19.0339 1.3251 19.1769 1.42097 19.4239 1.66965C19.5525 1.97503 19.5217 2.08457 19.3965 2.39475C19.2481 2.63645 19.2481 2.63645 19.0724 2.72434C18.8937 2.73184 18.7149 2.73376 18.5361 2.73292C18.4296 2.73264 18.3231 2.73236 18.2134 2.73207C18.1017 2.73133 17.99 2.73059 17.8749 2.72983C17.7625 2.72944 17.6501 2.72904 17.5343 2.72863C17.256 2.72759 16.9776 2.72615 16.6993 2.72434C16.7027 3.57252 16.7079 4.42065 16.7155 5.2688C16.7189 5.66277 16.7218 6.05672 16.7231 6.4507C16.7245 6.83197 16.7275 7.2132 16.7317 7.59445C16.733 7.73882 16.7337 7.88321 16.7338 8.02759C16.7356 9.8251 17.1765 11.3757 18.4733 12.6862C19.622 13.7696 21.1094 14.3681 22.69 14.3298C24.3053 14.2448 25.719 13.551 26.8342 12.392C27.9737 11.0441 28.2374 9.56723 28.2494 7.8656C28.251 7.71697 28.2527 7.56834 28.2545 7.41971C28.259 7.0309 28.2625 6.64209 28.2658 6.25326C28.2693 5.85555 28.2738 5.45784 28.2782 5.06014C28.2867 4.28155 28.2941 3.50295 28.3009 2.72434C28.2147 2.72493 28.1285 2.72551 28.0396 2.72612C27.2275 2.73146 26.4154 2.73541 25.6032 2.738C25.1856 2.73938 24.7681 2.74125 24.3506 2.74423C23.9477 2.7471 23.5448 2.74867 23.1419 2.74936C22.9881 2.74985 22.8343 2.7508 22.6806 2.75222C22.4653 2.75413 22.2501 2.7544 22.0348 2.75427C21.9711 2.75522 21.9075 2.75617 21.8419 2.75715C21.5724 2.75549 21.3834 2.73829 21.1442 2.60952C20.9264 2.37499 20.929 2.1575 20.9181 1.84544C20.9851 1.62001 21.04 1.53101 21.2325 1.39822C21.5371 1.28359 21.8337 1.29291 22.1547 1.29395C22.2259 1.2935 22.2971 1.29305 22.3705 1.29259C22.6057 1.29137 22.8409 1.29145 23.0762 1.29166C23.24 1.29131 23.4037 1.29093 23.5675 1.29051C23.9107 1.28986 24.254 1.28988 24.5972 1.29035C25.0366 1.29086 25.476 1.28937 25.9153 1.28733C26.2536 1.28603 26.5918 1.28596 26.9301 1.28623C27.092 1.28619 27.254 1.28573 27.4159 1.28484C27.6427 1.28375 27.8694 1.28435 28.0962 1.28537C28.1628 1.2847 28.2294 1.28402 28.298 1.28333C28.8274 1.28857 29.1807 1.41414 29.5629 1.78055C29.7434 2.08169 29.7432 2.27172 29.7291 2.61997C29.7259 2.72205 29.7228 2.82413 29.7195 2.9293C29.7154 3.00669 29.7113 3.08407 29.7071 3.16379C29.8141 3.15654 29.921 3.14929 30.0312 3.14182C31.0298 3.14809 31.8756 3.55876 32.6075 4.21848C33.3652 5.03295 33.7121 6.01595 33.6904 7.12162C33.6098 7.86801 33.3311 8.50059 32.9591 9.14036C33.0079 9.14087 33.0566 9.14139 33.1069 9.14192C33.6145 9.14754 34.122 9.15496 34.6296 9.16342C34.819 9.16635 35.0084 9.16881 35.1978 9.1708C35.4701 9.17375 35.7424 9.17835 36.0147 9.18327C36.0994 9.18383 36.1841 9.18439 36.2713 9.18497C36.3505 9.18671 36.4296 9.18845 36.5112 9.19025C36.5807 9.19122 36.6501 9.1922 36.7217 9.1932C36.9658 9.23764 37.0866 9.32209 37.2657 9.49192C37.3536 9.78855 37.3536 9.78855 37.3536 10.1072C37.1984 10.3534 37.0873 10.504 36.8263 10.6345C36.593 10.6453 36.3619 10.6508 36.1286 10.6525C36.0566 10.6534 35.9845 10.6543 35.9103 10.6552C35.6716 10.658 35.4328 10.6601 35.1941 10.6623C35.0288 10.6641 34.8636 10.666 34.6983 10.6678C34.2628 10.6727 33.8273 10.677 33.3918 10.6813C32.9476 10.6857 32.5034 10.6906 32.0592 10.6954C31.1873 10.7049 30.3154 10.7138 29.4435 10.7224C29.2984 11.0994 29.1534 11.4765 29.004 11.865C33.6446 11.865 38.2853 11.865 43.0665 11.865C43.0665 11.4589 43.0665 11.0529 43.0665 10.6345C42.8982 10.6373 42.8982 10.6373 42.7266 10.6401C42.3097 10.6464 41.8928 10.6505 41.476 10.6538C41.2956 10.6556 41.1153 10.658 40.9351 10.661C40.6756 10.6653 40.4163 10.6673 40.1568 10.6688C40.0764 10.6706 39.996 10.6725 39.9132 10.6743C39.5439 10.6745 39.3409 10.6668 39.0186 10.4727C38.7985 10.2282 38.7599 10.0835 38.7599 9.75559C38.9471 9.35435 38.9471 9.35435 39.1993 9.22825C39.3433 9.21898 39.4876 9.21517 39.6318 9.21409C39.7219 9.21324 39.812 9.2124 39.9048 9.21153C40.0513 9.21097 40.0513 9.21097 40.2008 9.21039C40.351 9.20964 40.351 9.20964 40.5043 9.20888C40.7165 9.20804 40.9288 9.20747 41.1411 9.20713C41.4657 9.20628 41.7903 9.20355 42.115 9.20078C42.321 9.20021 42.5271 9.19975 42.7331 9.19941C42.8303 9.19832 42.9274 9.19724 43.0275 9.19612C43.1184 9.19638 43.2093 9.19665 43.303 9.19692C43.4225 9.19644 43.4225 9.19644 43.5445 9.19595C43.9086 9.24818 44.1403 9.40484 44.366 9.69055C44.56 10.1281 44.5149 10.5905 44.512 11.0621C44.5112 11.2435 44.5137 11.4246 44.5165 11.6059C44.5165 11.7212 44.5164 11.8365 44.5164 11.9553C44.5165 12.0602 44.5167 12.1651 44.5168 12.2732C44.4634 12.6306 44.3501 12.8181 44.1212 13.0954C43.786 13.3332 43.3965 13.3104 43.0006 13.3261C42.9309 13.3295 42.8612 13.3329 42.7894 13.3364C42.6182 13.3447 42.4468 13.352 42.2755 13.3591C42.3148 13.5016 42.3148 13.5016 42.355 13.647C42.602 14.5419 42.849 15.4369 43.096 16.3318C43.223 16.7919 43.35 17.252 43.477 17.7121C43.5996 18.1561 43.7221 18.6 43.8446 19.0439C43.8913 19.2134 43.9381 19.3829 43.9849 19.5523C44.0504 19.7895 44.1158 20.0266 44.1813 20.2638C44.2007 20.334 44.2201 20.4042 44.2401 20.4766C44.6226 21.8641 44.6226 21.8641 44.3135 22.4503C44.1212 22.6755 44.1212 22.6755 43.8575 22.8513C43.2484 22.8513 42.6394 22.8513 42.0118 22.8513C42.0118 29.2612 42.0118 35.671 42.0118 42.2751C42.8819 42.2751 43.7521 42.2751 44.6485 42.2751C45.0001 42.6267 45.0001 42.6267 45.0499 42.8025C45.0498 42.8605 45.0497 42.9185 45.0495 42.9782C45.0515 43.0363 45.0534 43.0943 45.0554 43.154C44.9665 43.4366 44.8074 43.5239 44.5606 43.6814C44.3021 43.7152 44.0769 43.7287 43.8187 43.7256C43.7439 43.7261 43.669 43.7266 43.5919 43.7272C43.3398 43.7284 43.0878 43.7272 42.8358 43.726C42.6537 43.7264 42.4716 43.727 42.2896 43.7277C41.7884 43.7291 41.2872 43.7284 40.786 43.7273C40.2458 43.7265 39.7056 43.7278 39.1654 43.7287C38.1681 43.7302 37.1708 43.7301 36.1734 43.7291C35.2521 43.7282 34.3308 43.728 33.4095 43.7284C33.3484 43.7284 33.2874 43.7285 33.2244 43.7285C32.9765 43.7286 32.7286 43.7287 32.4807 43.7288C30.1544 43.7299 27.8281 43.7289 25.5018 43.727C23.4342 43.7254 21.3667 43.7255 19.2991 43.7272C16.9771 43.7291 14.6551 43.7298 12.3331 43.7287C12.0856 43.7286 11.8381 43.7285 11.5907 43.7284C11.5297 43.7284 11.4688 43.7284 11.406 43.7283C10.4852 43.7279 9.56443 43.7284 8.64363 43.7293C7.59681 43.7303 6.54999 43.73 5.50317 43.7281C4.96874 43.7272 4.43434 43.7269 3.89991 43.728C3.41112 43.7291 2.92236 43.7285 2.43358 43.7266C2.25633 43.7262 2.07907 43.7264 1.90182 43.7273C1.66166 43.7283 1.42161 43.7272 1.18145 43.7256C1.11195 43.7264 1.04244 43.7273 0.970832 43.7281C0.642706 43.7236 0.456303 43.6921 0.176912 43.5138C9.93498e-05 43.3298 9.91821e-05 43.3298 -0.0551758 43.154C-0.0532497 43.096 -0.0513237 43.038 -0.0493393 42.9782C-0.0494526 42.9202 -0.0495659 42.8622 -0.0496826 42.8025C0.0238116 42.543 0.140863 42.442 0.351662 42.2751C0.633615 42.2352 0.633615 42.2352 0.962776 42.2408C1.0208 42.2413 1.07883 42.2418 1.13862 42.2423C1.32314 42.2443 1.50751 42.2487 1.69199 42.2531C1.81742 42.2549 1.94285 42.2565 2.06828 42.258C2.37503 42.2618 2.68169 42.2679 2.98838 42.2751C2.9876 42.1957 2.98682 42.1163 2.98601 42.0345C2.97897 41.2858 2.97362 40.537 2.97017 39.7883C2.96833 39.4033 2.96584 39.0184 2.96186 38.6335C2.95804 38.2619 2.95594 37.8904 2.95503 37.5188C2.95438 37.3771 2.95311 37.2355 2.95121 37.0938C2.94865 36.8951 2.94831 36.6966 2.94847 36.498C2.9473 36.3285 2.9473 36.3285 2.9461 36.1555C2.99554 35.8089 3.09408 35.6642 3.33994 35.4197C3.51572 35.3644 3.51572 35.3644 3.69151 35.3702C3.74951 35.3701 3.80752 35.37 3.86729 35.3699C4.1277 35.4436 4.22757 35.559 4.39463 35.7712C4.43691 36.0604 4.43691 36.0604 4.43454 36.4082C4.43458 36.4727 4.43463 36.5372 4.43467 36.6036C4.43441 36.8119 4.43173 37.02 4.42896 37.2283C4.42845 37.3571 4.42809 37.4859 4.42789 37.6146C4.42605 38.0915 4.42114 38.5683 4.4166 39.0451C4.40935 40.111 4.4021 41.1769 4.39463 42.2751C8.16514 42.2751 11.9356 42.2751 15.8204 42.2751C15.8204 35.8653 15.8204 29.4554 15.8204 22.8513C12.0499 22.8513 8.2794 22.8513 4.39463 22.8513C4.41203 26.3314 4.41203 26.3314 4.43422 29.8115C4.4362 30.4846 4.4362 30.4846 4.43657 30.7997C4.43725 31.0198 4.43879 31.2399 4.44103 31.4599C4.44424 31.7933 4.44469 32.1266 4.44452 32.4599C4.4461 32.558 4.44768 32.656 4.44931 32.757C4.44435 33.4943 4.44435 33.4943 4.1835 33.7675C3.94974 33.9293 3.86817 33.9808 3.59263 33.9365C3.53439 33.9295 3.47616 33.9224 3.41616 33.9152C3.15481 33.7916 3.10655 33.6648 2.98838 33.3982C2.94989 33.0589 2.95511 32.7213 2.95845 32.3801C2.95841 32.2772 2.95837 32.1742 2.95833 32.0682C2.95851 31.7281 2.96057 31.3882 2.96263 31.0481C2.96312 30.8123 2.96351 30.5765 2.96376 30.3406C2.96458 29.7834 2.96674 29.2263 2.96939 28.6691C2.97234 28.0347 2.97379 27.4002 2.97511 26.7657C2.97787 25.4609 2.9825 24.1561 2.98838 22.8513C2.93477 22.8531 2.88116 22.855 2.82592 22.8569C2.58163 22.8642 2.33736 22.8688 2.09299 22.8733C2.00865 22.8762 1.9243 22.8792 1.83739 22.8822C1.21105 22.8909 1.21105 22.8909 0.874542 22.6961C0.562979 22.339 0.489508 22.0799 0.501391 21.5992C0.556993 21.0827 0.711236 20.5868 0.851883 20.0882C0.885965 19.9646 0.919959 19.8409 0.95387 19.7172C1.04334 19.3919 1.13401 19.0669 1.22495 18.7419C1.31506 18.4191 1.40399 18.096 1.49304 17.7729C1.69703 17.0336 1.90298 16.2949 2.10947 15.5564C2.1416 15.4414 2.17372 15.3265 2.20584 15.2115C2.37847 14.594 2.55138 13.9765 2.72471 13.3591C2.61516 13.3557 2.50562 13.3524 2.39276 13.3489C2.32743 13.3468 2.2621 13.3448 2.1948 13.3426C2.05947 13.3386 1.92412 13.3355 1.78877 13.3329C1.33583 13.3124 1.05827 13.224 0.703224 12.9197C0.413254 12.4844 0.498101 11.9415 0.499698 11.4392C0.499976 11.2561 0.497913 11.0732 0.495686 10.8901C0.495629 10.7741 0.495572 10.6582 0.495514 10.5387C0.495252 10.4328 0.49499 10.3269 0.49472 10.2177C0.531163 9.89882 0.5924 9.74235 0.791115 9.49192C1.13953 9.23498 1.3883 9.19553 1.81728 9.19654C1.90398 9.1962 1.90398 9.1962 1.99243 9.19586C2.18543 9.19542 2.37836 9.19687 2.57135 9.19831C2.70996 9.19839 2.84857 9.19835 2.98718 9.1982C3.36305 9.19812 3.73889 9.19967 4.11475 9.20151C4.50771 9.20316 4.90067 9.20332 5.29362 9.20363C6.03756 9.20445 6.78148 9.20661 7.52541 9.20926C8.37243 9.2122 9.21944 9.21365 10.0665 9.21498C11.8087 9.21773 13.5509 9.22237 15.2931 9.22825C15.2921 9.13913 15.2911 9.05001 15.2901 8.95819C15.2812 8.11764 15.2746 7.27711 15.2703 6.43653C15.268 6.00439 15.2649 5.57229 15.2599 5.14017C15.2551 4.72302 15.2525 4.30591 15.2514 3.88873C15.2506 3.72971 15.249 3.57069 15.2466 3.41168C15.2434 3.18863 15.243 2.96574 15.2432 2.74267C15.2408 2.64442 15.2408 2.64442 15.2384 2.5442C15.2434 2.03795 15.3856 1.8355 15.7325 1.49387C16.2278 1.20919 16.8275 1.2854 17.3826 1.28552ZM29.7071 4.57004C29.7071 6.10725 29.7071 7.64446 29.7071 9.22825C30.6113 9.13783 31.1582 9.00966 31.7688 8.35998C32.1373 7.85341 32.3367 7.2143 32.256 6.59153C32.1116 5.93658 31.8274 5.351 31.2672 4.95903C30.7042 4.63587 30.3741 4.57004 29.7071 4.57004ZM1.93369 10.6345C1.93369 11.0406 1.93369 11.4466 1.93369 11.865C6.57432 11.865 11.2149 11.865 15.9962 11.865C15.7821 11.0601 15.7821 11.0601 15.5567 10.6345C11.0611 10.6345 6.56553 10.6345 1.93369 10.6345ZM4.21885 13.2712C3.74844 14.9815 3.74844 14.9815 3.26853 16.7264C3.16999 17.0847 3.07144 17.443 2.96991 17.8121C2.88056 18.137 2.88056 18.137 2.79122 18.4618C2.75183 18.605 2.71244 18.7483 2.67305 18.8915C2.65275 18.9653 2.63246 19.039 2.61155 19.115C2.58171 19.2235 2.58171 19.2235 2.55127 19.3342C2.51314 19.4729 2.47505 19.6116 2.43702 19.7503C2.35845 20.0369 2.2794 20.3233 2.19884 20.6093C2.17459 20.6958 2.15035 20.7823 2.12537 20.8714C2.10495 20.9434 2.08453 21.0153 2.06349 21.0894C2.01161 21.2813 2.01161 21.2813 2.02158 21.5329C5.15401 21.5329 8.28643 21.5329 11.5138 21.5329C11.7175 21.0021 11.7175 21.0021 11.8859 20.4662C11.912 20.3719 11.912 20.3719 11.9385 20.2758C11.9565 20.2095 11.9744 20.1433 11.9929 20.0751C12.0127 20.0032 12.0325 19.9314 12.0528 19.8574C12.1173 19.6225 12.1814 19.3874 12.2454 19.1523C12.2903 18.9882 12.3353 18.8241 12.3802 18.66C12.474 18.3175 12.5676 17.9748 12.661 17.6321C12.7809 17.1923 12.9013 16.7525 13.0219 16.3128C13.1146 15.9746 13.207 15.6364 13.2994 15.2981C13.3438 15.1358 13.3882 14.9736 13.4326 14.8114C13.4945 14.5855 13.5561 14.3595 13.6175 14.1335C13.636 14.0662 13.6545 13.9989 13.6736 13.9296C13.7663 13.6051 13.7663 13.6051 13.7989 13.2712C10.6375 13.2712 7.47608 13.2712 4.21885 13.2712ZM15.2931 13.2712C15.1153 13.7301 14.9609 14.1875 14.8328 14.6629C14.8151 14.7277 14.7973 14.7925 14.779 14.8593C14.721 15.0713 14.6635 15.2835 14.6061 15.4956C14.5655 15.6444 14.5249 15.7933 14.4843 15.9421C14.3995 16.2531 14.315 16.5642 14.2306 16.8754C14.1229 17.2724 14.0147 17.6693 13.9064 18.0662C13.8226 18.3733 13.7391 18.6804 13.6556 18.9876C13.6158 19.1339 13.5759 19.2802 13.536 19.4264C13.4801 19.6316 13.4245 19.8368 13.3689 20.042C13.3527 20.1014 13.3365 20.1607 13.3198 20.2218C13.2022 20.6573 13.106 21.0913 13.0079 21.5329C19.2728 21.5329 25.5376 21.5329 31.9923 21.5329C31.7203 20.4378 31.7203 20.4378 31.4328 19.3472C31.4149 19.2811 31.397 19.215 31.3785 19.147C31.3211 18.9353 31.2634 18.7237 31.2057 18.512C31.1651 18.3625 31.1244 18.213 31.0837 18.0635C30.9994 17.7536 30.915 17.4438 30.8305 17.134C30.722 16.7363 30.6139 16.3385 30.506 15.9406C30.4226 15.6335 30.3389 15.3264 30.2551 15.0193C30.2151 14.8725 30.1752 14.7256 30.1354 14.5787C30.0802 14.3751 30.0246 14.1715 29.9688 13.968C29.9525 13.9073 29.9361 13.8465 29.9192 13.7839C29.858 13.5043 29.858 13.5043 29.7071 13.2712C29.0601 13.1729 28.249 13.0837 27.6805 13.4394C27.5424 13.5899 27.4092 13.7451 27.2809 13.904C26.334 15.0115 24.6167 15.5723 23.2148 15.696C21.3456 15.8338 19.4252 15.4047 17.9761 14.1597C17.657 13.8741 17.3537 13.574 17.0509 13.2712C16.8635 13.2469 16.8635 13.2469 16.6492 13.254C16.5705 13.2546 16.4917 13.2552 16.4106 13.2558C16.287 13.258 16.287 13.258 16.161 13.2602C16.0364 13.2614 16.0364 13.2614 15.9093 13.2626C15.7039 13.2647 15.4985 13.2676 15.2931 13.2712ZM31.2013 13.2712C31.4658 14.4135 31.4658 14.4135 31.7608 15.5468C31.7787 15.612 31.7966 15.6772 31.8151 15.7444C31.8724 15.9528 31.9301 16.1611 31.9878 16.3694C32.0285 16.5168 32.0692 16.6642 32.1098 16.8116C32.1941 17.1168 32.2785 17.422 32.3631 17.7271C32.4717 18.1188 32.5797 18.5106 32.6876 18.9025C32.771 19.2052 32.8547 19.5078 32.9384 19.8104C32.9784 19.955 33.0183 20.0997 33.0582 20.2444C33.1134 20.4449 33.169 20.6452 33.2247 20.8456C33.2411 20.9054 33.2575 20.9652 33.2744 21.0268C33.3364 21.3028 33.3364 21.3028 33.4864 21.5329C33.6098 21.5413 33.7337 21.5436 33.8574 21.5435C33.9373 21.5436 34.0173 21.5437 34.0998 21.5439C34.1882 21.5436 34.2766 21.5432 34.3678 21.5429C34.4604 21.5429 34.5529 21.5429 34.6483 21.5429C34.956 21.5429 35.2637 21.5422 35.5714 21.5415C35.7841 21.5414 35.9968 21.5412 36.2095 21.5411C36.7706 21.5408 37.3316 21.5399 37.8927 21.539C38.4647 21.5381 39.0367 21.5377 39.6087 21.5372C40.732 21.5363 41.8553 21.5348 42.9786 21.5329C42.8866 21.0014 42.7898 20.4772 42.6446 19.9571C42.6144 19.8479 42.5841 19.7387 42.553 19.6262C42.5203 19.51 42.4877 19.3938 42.455 19.2776C42.4208 19.1547 42.3867 19.0318 42.3526 18.9089C42.2631 18.5871 42.1731 18.2654 42.083 17.9437C41.9928 17.6212 41.903 17.2985 41.8132 16.9758C41.6801 16.4978 41.5467 16.0198 41.4131 15.5419C41.2018 14.7852 40.9916 14.0282 40.7813 13.2712C37.6199 13.2712 34.4585 13.2712 31.2013 13.2712ZM17.2267 22.8513C17.2267 29.2612 17.2267 35.671 17.2267 42.2751C20.7071 42.2751 24.1876 42.2751 27.7735 42.2751C27.7735 35.8653 27.7735 29.4554 27.7735 22.8513C24.2931 22.8513 20.8126 22.8513 17.2267 22.8513ZM29.1798 22.8513C29.1798 29.2612 29.1798 35.671 29.1798 42.2751C32.9503 42.2751 36.7208 42.2751 40.6056 42.2751C40.6056 35.8653 40.6056 29.4554 40.6056 22.8513C36.8351 22.8513 33.0646 22.8513 29.1798 22.8513Z" fill="white"/>
</g>
<defs>
<clipPath id="clip0_27_278">
<rect width="45" height="45" fill="white"/>
</clipPath>
</defs>
</svg>
