<svg width="45" height="45" viewBox="0 0 45 45" fill="none" xmlns="http://www.w3.org/2000/svg">
<path d="M9.29351 17.6283C8.93634 17.7637 8.81395 19.3435 8.81395 23.8102V29.8104H7.87288C6.54854 29.8104 4.97752 30.5372 4.97752 31.1501C4.97752 31.525 5.21422 31.5967 5.84071 31.4108C6.31567 31.27 7.09101 31.1317 7.56404 31.1033C8.38658 31.054 8.36586 31.1324 7.08449 32.9002C5.65848 34.8673 5.45247 35.4866 6.22436 35.4837C6.48831 35.4827 7.3024 34.6169 8.03401 33.5595C8.76523 32.5022 9.49914 31.7144 9.66449 31.8088C10.1698 32.0975 9.99903 34.3959 9.39172 35.4816C9.07637 36.0452 8.43376 36.7556 7.96342 37.06C6.95098 37.7158 4.55589 37.7913 3.90331 37.188C3.32823 36.6563 3.30445 34.614 3.86226 33.6507C4.4243 32.6795 3.75446 32.051 3.024 32.8643C2.69522 33.23 2.48383 34.2774 2.48383 35.5387C2.48383 37.3916 2.40058 37.6119 1.69736 37.6126C1.26499 37.6133 0.703723 37.8052 0.450518 38.0393C-0.0854325 38.5348 -0.164463 39.9663 0.328519 40.2479C0.514587 40.3543 3.01786 40.8612 5.89136 41.3748C11.0955 42.3044 11.1158 42.3119 11.1158 43.2869C11.1158 43.8253 11.3525 44.4478 11.6422 44.6698C12.0147 44.9554 15.2434 45.0462 22.6719 44.9791L33.1753 44.8848L33.3008 43.8207C33.3698 43.2355 33.5482 42.6392 33.6979 42.4959C33.9043 42.2977 43.546 40.4512 44.3754 40.4512C44.4656 40.4512 44.4855 39.8528 44.4199 39.1211L44.301 37.791H40.6564C37.6724 37.791 37.0118 37.8875 37.0118 38.323C37.0118 38.7398 37.7188 38.8951 40.2728 39.0398C44.1176 39.2576 43.8142 39.4545 38.1274 40.4302C34.4371 41.0637 32.3478 41.1605 22.3972 41.1605C12.579 41.1605 10.3409 41.0591 6.89497 40.459C4.67981 40.0734 2.43588 39.6343 1.90836 39.4836C1.38085 39.3332 8.5454 39.1299 17.8296 39.0324C32.4932 38.8785 34.7099 38.7852 34.7099 38.323C34.7099 37.9247 34.0984 37.7463 32.2745 37.6136L29.8396 37.4363L31.0407 36.6191C31.7014 36.1693 32.7602 35.1397 33.394 34.3306L34.5465 32.8601L37.3413 32.8427C39.7299 32.8278 40.3679 32.6834 41.7314 31.8496C44.9643 29.8722 45.9679 25.7422 43.9776 22.6024C42.8125 20.7644 39.8511 19.1697 37.603 19.1697C36.5518 19.1697 36.1467 18.9846 35.8559 18.3717C35.5305 17.6857 35.1404 17.5587 33.0794 17.4679C31.1217 17.3817 30.6817 17.4633 30.6817 17.9113C30.6817 18.3405 31.1428 18.4604 32.7917 18.4604C34.6458 18.4604 34.9017 18.5462 34.9017 19.1697C34.9017 19.8646 34.6458 19.8791 22.4333 19.8791C10.2572 19.8791 9.96489 19.8628 9.96489 19.1758C9.96489 18.4965 10.2829 18.4696 19.3645 18.3777C25.3068 18.3178 28.7642 18.1525 28.7642 17.9283C28.7642 17.5619 10.2212 17.276 9.29351 17.6283ZM34.8304 25.6428C34.6965 29.5249 34.5695 30.185 33.6403 31.8382C32.3962 34.0508 30.4465 35.9296 28.3848 36.9018C27.1207 37.4984 26.124 37.6136 22.2396 37.6136H17.6029L17.8461 36.4151C18.3556 33.9039 16.4078 32.2933 12.8606 32.2933C11.3073 32.2933 11.2509 32.2511 10.6144 30.6085C10.1521 29.416 9.96182 27.8093 9.96297 25.1108L9.96489 21.2979H22.4728H34.9808L34.8304 25.6428ZM40.0153 20.7176C41.6209 21.338 43.2157 23.0937 43.7075 24.7834C44.7138 28.2378 41.4924 31.9503 37.5036 31.9333C35.7653 31.9258 35.1423 31.4949 35.4737 30.5294C35.684 29.9172 35.961 29.7792 36.7137 29.9122C38.3818 30.2073 40.2513 29.5054 41.0585 28.2814C42.8927 25.4999 41.1148 22.3864 37.6832 22.3698C36.2334 22.3627 36.0527 22.2704 36.0527 21.5345C36.0527 21.079 36.1678 20.6002 36.3086 20.4704C36.7359 20.0749 38.6887 20.2051 40.0153 20.7176ZM32.2162 43.2947C32.2162 43.9959 32.0217 44.0083 22.3424 43.9154C13.2911 43.8285 12.4578 43.7689 12.3396 43.2C12.2192 42.6215 12.8932 42.5793 22.2135 42.5793C31.9883 42.5793 32.2162 42.5956 32.2162 43.2947ZM39.7686 24.1971C41.393 25.6081 40.7661 27.9661 38.5602 28.7414C36.4866 29.4703 36.0527 29.0071 36.0527 26.0624V23.426H37.4668C38.3902 23.426 39.1886 23.6935 39.7686 24.1971ZM15.7548 34.022L16.6426 34.6864L14.6277 35.0861C13.5193 35.3057 12.3623 35.4855 12.0561 35.4855C11.75 35.4855 11.4995 35.743 11.4995 36.058C11.4995 36.5428 11.7772 36.5879 13.3218 36.3541C14.3242 36.202 15.5327 36.0643 16.0077 36.0477C16.826 36.0193 16.8398 36.0597 16.2739 36.8156C15.733 37.5374 15.3643 37.6136 12.4091 37.6136H9.14197L9.93688 36.679C10.3742 36.1651 10.7322 35.6167 10.7322 35.4607C10.7322 35.3046 10.9006 34.7676 11.1062 34.2671C11.43 33.4801 11.7089 33.3573 13.1737 33.3573C14.2575 33.3573 15.187 33.5968 15.7548 34.022Z" fill="white"/>
<path d="M24.1599 0.259644C24.1599 0.393363 24.5121 0.849139 24.9425 1.27264C25.3726 1.69614 25.8214 2.59315 25.9396 3.266C26.1111 4.24282 25.9534 4.70994 25.157 5.58496C24.6087 6.18758 24.1599 6.7941 24.1599 6.93279C24.1599 7.07147 24.6087 7.67799 25.157 8.28061C25.9534 9.15563 26.1111 9.62276 25.9396 10.5996C25.8214 11.2724 25.3726 12.1694 24.9425 12.5929C24.5121 13.0164 24.1599 13.4722 24.1599 13.6059C24.1599 14.1443 25.2283 13.7989 26.0428 12.9973C27.2275 11.8314 27.4607 9.743 26.5818 8.1742C25.9112 6.97748 25.9112 6.8881 26.5776 5.69137C27.4531 4.11974 27.221 2.02778 26.0428 0.868293C25.2283 0.0666928 24.1599 -0.278775 24.1599 0.259644Z" fill="white"/>
<path d="M29.1472 6.53635C29.1472 6.63957 29.5788 7.31206 30.1063 8.03066C31.3371 9.70728 31.3225 11.0296 30.0588 12.4185C28.9842 13.5986 29.0287 14.0444 30.1861 13.705C31.1955 13.4088 32.2164 11.652 32.2164 10.2117C32.2164 8.8312 30.8088 6.64453 29.8052 6.46612C29.4434 6.40157 29.1472 6.43314 29.1472 6.53635Z" fill="white"/>
<path d="M18.7886 6.82159C18.7886 7.05285 19.1504 7.59801 19.5931 8.03357C20.6888 9.11182 20.706 11.0683 19.6318 12.4115C18.6505 13.6387 18.6025 13.8494 19.3046 13.8494C20.0822 13.8494 21.0812 12.6687 21.5055 11.2485C21.794 10.2816 21.7434 9.67223 21.2911 8.6713C20.5246 6.97481 18.7886 5.6919 18.7886 6.82159Z" fill="white"/>
</svg>
