<svg width="45" height="45" viewBox="0 0 45 45" fill="none" xmlns="http://www.w3.org/2000/svg">
<path d="M39.3695 0.192345C37.0264 0.771238 34.4632 1.93646 31.2029 3.90377C28.1729 5.73256 27.8842 5.83531 26.6937 5.50406C25.9944 5.30956 24.971 5.14978 24.4196 5.14871C22.6237 5.14517 23.6036 5.92317 26.2383 6.59311C29.7545 7.48696 30.4958 7.9546 28.4302 7.97515C25.8773 8.00101 24.8252 8.75917 24.3761 10.8983C24.2395 11.5491 23.8814 11.9402 23.2851 12.0901C22.3699 12.32 21.3525 13.4622 21.3525 14.2597C21.3525 14.5084 21.6749 15.0349 22.0691 15.4295C22.6955 16.0566 23.0678 16.1183 25.0202 15.9181C27.5193 15.6616 28.7841 16.0917 28.7841 17.1978C28.7841 18.183 27.4245 18.4133 24.7502 17.8812C20.706 17.0766 19.3711 18.3449 19.65 22.7277C19.7791 24.7595 19.9327 25.1963 20.7729 25.9198C21.5946 26.6272 22.1293 26.7576 24.2108 26.7576C26.5345 26.7576 26.7004 26.8115 27.1035 27.6972C27.5115 28.5935 27.4259 28.7324 25.2382 30.7284C23.9769 31.8791 21.8522 33.7213 20.5163 34.8221C18.21 36.7224 18.0628 36.7894 17.5967 36.1513C16.8607 35.1434 17.0015 33.4482 18.0041 31.2559C19.8722 27.1711 17.8076 24.993 12.063 24.9883L9.67431 24.9862V23.5925C9.67431 22.3479 9.83497 22.0907 11.1758 21.1894C13.0224 19.9477 13.2054 19.187 11.9685 17.8943C10.7558 16.627 11.0676 16.1292 13.073 16.1292C14.3081 16.1292 14.8637 15.9262 15.5736 15.2152C16.3964 14.3919 16.4601 14.1382 16.2191 12.6467C16.0718 11.7369 15.9873 10.5936 16.0311 10.1065C16.075 9.61936 16.1355 8.77512 16.166 8.23059C16.2145 7.35871 16.4325 7.18157 17.9906 6.74722C18.9638 6.47584 20.0654 6.20411 20.4384 6.14317C20.8118 6.08224 21.1834 5.83318 21.264 5.58944C21.4704 4.96945 19.7845 5.02188 17.4357 5.70812C12.1918 7.24073 7.6193 11.7305 5.80174 17.1326C4.99701 19.5239 4.80485 24.5335 5.43087 26.7906C5.76175 27.9834 5.65913 28.2718 3.80406 31.3526C1.3389 35.446 0.0486333 38.778 0.00192044 41.1704C-0.0394841 43.2766 0.583 44.219 2.41577 44.8244C4.55324 45.5309 8.89081 44.0762 13.8675 40.9844C16.7163 39.2144 16.8723 39.1624 18.2376 39.5305C19.0162 39.7405 20.9799 39.9074 22.6014 39.9014C27.5766 39.8826 31.5925 38.1236 35.0369 34.4533C37.2144 32.1331 38.0835 30.7064 39.0167 27.9204C39.8345 25.4787 40.0267 20.4901 39.3915 18.2C39.0744 17.0575 39.1476 16.7135 40.0125 15.2751C41.0144 13.6096 41.0236 13.6061 42.9752 14.2314C44.0493 14.5754 44.7089 13.3921 44.7089 11.1208C44.7089 7.29635 43.5967 6.73057 40.2684 8.86227C38.0881 10.2585 37.8496 11.0407 39.218 12.3108L40.0967 13.1267L39.3805 14.3061L38.6639 15.4855L37.3074 13.4162C35.7146 10.9862 33.5247 8.82259 31.158 7.34028L29.4621 6.27851L32.0766 4.64705C35.527 2.49374 38.8397 1.17441 40.876 1.14146C42.8985 1.10922 43.522 1.58537 43.8278 3.39574C44.0642 4.79656 44.5684 5.21673 44.9184 4.30411C45.2486 3.4425 44.5277 1.49964 43.6317 0.837488C42.5308 0.0233541 40.9935 -0.209053 39.3695 0.192345ZM33.2208 10.1922C35.0224 11.7798 37.6372 15.4969 37.6227 16.4499C37.6135 17.0575 34.0273 21.6177 30.6547 25.3104L28.5788 27.5831L27.6361 26.6389C26.8066 25.8085 26.4138 25.6948 24.3765 25.6948C21.2364 25.6948 20.6447 25.1138 20.6447 22.0298C20.6447 19.2108 21.3086 18.4112 23.3714 18.7456C27.387 19.3968 28.0657 19.4063 28.9554 18.8228C29.5584 18.4271 29.8458 17.9159 29.8458 17.2388C29.8458 15.3477 27.6237 14.2399 24.9657 14.8064C23.8789 15.0381 23.301 15.0079 22.9308 14.7004C22.1459 14.0482 22.2988 13.707 23.6245 13.1526C24.9126 12.6137 25.5991 11.683 25.5991 10.4753C25.5991 9.57295 26.7418 9.07944 28.7671 9.10743C29.5736 9.11841 30.3323 9.02913 30.4527 8.90868C30.9205 8.43997 31.5794 8.74571 33.2208 10.1922ZM15.1125 8.77795C14.7734 9.77135 14.7741 10.5926 15.1149 12.4497C15.4649 14.3575 14.8063 15.0664 12.6823 15.0664C10.1206 15.0664 9.17391 16.8077 10.9129 18.3212C11.3995 18.7445 11.7976 19.2186 11.7976 19.3744C11.7976 19.5303 11.1631 19.9817 10.3877 20.3778C9.5324 20.8146 8.91452 21.4098 8.81684 21.8905C8.02237 25.7989 8.20321 26.0491 11.8213 26.0491C15.2172 26.0491 16.9548 26.668 17.486 28.0667C17.8009 28.8961 17.704 29.386 16.8829 31.105C15.7887 33.3968 15.6932 34.9702 16.5475 36.6243C17.0949 37.6839 17.0907 37.7403 16.4622 37.7403C15.4975 37.7403 11.827 35.2561 10.3343 33.5931C4.44035 27.0265 4.73443 16.6791 10.9826 10.7857C13.8151 8.11368 15.6415 7.22585 15.1125 8.77795ZM38.6193 22.1272C38.9516 31.55 31.8502 38.8031 22.2917 38.8031C18.3183 38.8031 17.8926 38.3309 20.1978 36.4798C21.1246 35.7351 23.0218 34.1199 24.4136 32.8902C25.8051 31.6608 27.0182 30.6547 27.1095 30.6547C27.2008 30.6547 27.3615 31.2988 27.4669 32.0856C27.721 33.981 28.2572 34.5518 29.7838 34.5518C30.7294 34.5518 31.3466 34.2644 32.2175 33.4195C33.3743 32.2971 33.7332 31.3633 33.0077 31.3633C32.8007 31.3633 32.2292 31.8415 31.738 32.4261C31.1378 33.14 30.5199 33.4889 29.8557 33.4889C28.7469 33.4889 28.4433 32.8505 28.4352 30.5045C28.4309 29.2673 28.6946 28.8379 30.8296 26.6074C32.1492 25.2286 33.8287 23.3856 34.5616 22.5119C35.6403 21.2266 35.9581 21.0236 36.2267 21.4491C36.8187 22.3865 36.5933 23.1868 35.3469 24.5675C34.0372 26.0189 33.1394 28.7791 33.771 29.4119C34.2445 29.8859 34.7878 28.9885 34.7948 27.7202C34.7984 27.0708 35.2216 26.3119 36.0338 25.4992C37.5233 24.0077 37.8793 22.7989 37.3 21.1958C36.956 20.2431 36.9564 19.8821 37.3014 19.4658C38.1504 18.4416 38.5152 19.1782 38.6193 22.1272ZM10.426 35.1335C11.2778 35.9409 12.7563 37.0806 13.7121 37.6662L15.4497 38.7312L13.7121 39.838C10.0055 42.1989 6.83863 43.5037 4.38903 43.6791C1.53495 43.8835 1.0427 43.4757 1.10003 40.9536C1.1478 38.8563 2.42179 35.6376 4.57058 32.1862L6.19597 29.5756L7.53684 31.6208C8.27434 32.7456 9.57451 34.3264 10.426 35.1335ZM43.579 10.7803C43.6388 11.8294 43.5592 12.816 43.402 12.973C43.0864 13.2883 39.693 11.5576 39.5121 10.989C39.3681 10.5359 42.2296 8.71205 42.9395 8.80417C43.3213 8.85377 43.5008 9.40892 43.579 10.7803Z" fill="white"/>
</svg>
