<svg width="35" height="35" viewBox="0 0 35 35" fill="none" xmlns="http://www.w3.org/2000/svg">
<g clip-path="url(#clip0_27_312)">
<path d="M3.85639 -0.0176029C3.90453 -0.0178426 3.95268 -0.0180822 4.00229 -0.0183292C4.16279 -0.0189626 4.32328 -0.0186302 4.48378 -0.0182972C4.60036 -0.0185528 4.71693 -0.0188674 4.83351 -0.0192358C5.15323 -0.020071 5.47295 -0.0200541 5.79267 -0.0198928C6.13774 -0.0198649 6.48281 -0.0206197 6.82788 -0.0212679C7.50373 -0.022403 8.17957 -0.0227793 8.85542 -0.0228555C9.40489 -0.0229205 9.95436 -0.0232016 10.5038 -0.0236349C12.0622 -0.0248388 13.6205 -0.0254696 15.1789 -0.0253671C15.2629 -0.0253616 15.3469 -0.0253561 15.4334 -0.0253505C15.5175 -0.0253449 15.6016 -0.0253393 15.6883 -0.0253336C17.0509 -0.025278 18.4135 -0.0265861 19.7762 -0.028514C21.1758 -0.0304785 22.5755 -0.0314219 23.9752 -0.0313039C24.7608 -0.0312585 25.5463 -0.031633 26.3319 -0.0331056C27.0009 -0.0343514 27.6698 -0.034647 28.3387 -0.0337195C28.6798 -0.0332736 29.0209 -0.0332635 29.362 -0.0344514C29.6747 -0.035529 29.9874 -0.0353286 30.3 -0.0341391C30.4127 -0.0339298 30.5255 -0.0341756 30.6382 -0.0349403C31.8719 -0.042752 32.9099 0.274658 33.8186 1.13886C34.5429 1.88167 35.0164 2.80466 35.0176 3.85639C35.0178 3.90453 35.018 3.95268 35.0183 4.00229C35.0189 4.16279 35.0186 4.32328 35.0183 4.48378C35.0185 4.60036 35.0188 4.71693 35.0192 4.83351C35.02 5.15323 35.02 5.47295 35.0199 5.79267C35.0198 6.13774 35.0206 6.48281 35.0212 6.82788C35.0224 7.50373 35.0227 8.17957 35.0228 8.85542C35.0229 9.40489 35.0232 9.95436 35.0236 10.5038C35.0248 12.0622 35.0254 13.6205 35.0253 15.1789C35.0253 15.3049 35.0253 15.3049 35.0253 15.4334C35.0253 15.5175 35.0253 15.6016 35.0253 15.6883C35.0252 17.0509 35.0266 18.4135 35.0285 19.7762C35.0304 21.1758 35.0314 22.5755 35.0313 23.9752C35.0312 24.7608 35.0316 25.5463 35.0331 26.3319C35.0343 27.0009 35.0346 27.6698 35.0337 28.3387C35.0332 28.6798 35.0332 29.0209 35.0344 29.362C35.0355 29.6747 35.0353 29.9874 35.0341 30.3C35.0339 30.4127 35.0341 30.5255 35.0349 30.6382C35.0427 31.8719 34.7253 32.9099 33.8611 33.8186C33.1183 34.5429 32.1953 35.0164 31.1436 35.0176C31.0954 35.0178 31.0473 35.018 30.9977 35.0183C30.8372 35.0189 30.6767 35.0186 30.5162 35.0183C30.3996 35.0185 30.283 35.0188 30.1665 35.0192C29.8467 35.02 29.527 35.02 29.2073 35.0199C28.8622 35.0198 28.5172 35.0206 28.1721 35.0212C27.4962 35.0224 26.8204 35.0227 26.1445 35.0228C25.5951 35.0229 25.0456 35.0232 24.4961 35.0236C22.9378 35.0248 21.3794 35.0254 19.8211 35.0253C19.7371 35.0253 19.6531 35.0253 19.5665 35.0253C19.4824 35.0253 19.3983 35.0253 19.3117 35.0253C17.9491 35.0252 16.5864 35.0266 15.2238 35.0285C13.8241 35.0304 12.4245 35.0314 11.0248 35.0313C10.2392 35.0312 9.45362 35.0316 8.66803 35.0331C7.99911 35.0343 7.33019 35.0346 6.66127 35.0337C6.32016 35.0332 5.97906 35.0332 5.63795 35.0344C5.32527 35.0355 5.01261 35.0353 4.69993 35.0341C4.58722 35.0339 4.47452 35.0341 4.36181 35.0349C3.12811 35.0427 2.0901 34.7253 1.18132 33.8611C0.45711 33.1183 -0.0164151 32.1953 -0.0176028 31.1436C-0.0178425 31.0954 -0.0180821 31.0473 -0.0183291 30.9977C-0.0189625 30.8372 -0.0186302 30.6767 -0.0182972 30.5162C-0.0185528 30.3996 -0.0188673 30.283 -0.0192357 30.1665C-0.020071 29.8467 -0.0200542 29.527 -0.0198929 29.2073C-0.019865 28.8622 -0.0206198 28.5172 -0.0212679 28.1721C-0.022403 27.4962 -0.0227793 26.8204 -0.0228555 26.1445C-0.0229205 25.5951 -0.0232016 25.0456 -0.0236349 24.4961C-0.0248388 22.9378 -0.0254695 21.3794 -0.025367 19.8211C-0.0253615 19.7371 -0.0253562 19.6531 -0.0253506 19.5665C-0.025345 19.4824 -0.0253394 19.3983 -0.0253336 19.3117C-0.025278 17.9491 -0.0265861 16.5864 -0.028514 15.2238C-0.0304785 13.8241 -0.031422 12.4245 -0.0313039 11.0248C-0.0312586 10.2392 -0.031633 9.45362 -0.0331056 8.66803C-0.0343514 7.99911 -0.0346469 7.33019 -0.0337195 6.66127C-0.0332735 6.32016 -0.0332636 5.97906 -0.0344514 5.63795C-0.0355291 5.32527 -0.0353286 5.01261 -0.034139 4.69993C-0.0339297 4.58722 -0.0341757 4.47452 -0.0349404 4.36181C-0.0427521 3.12811 0.274658 2.0901 1.13886 1.18132C1.88167 0.45711 2.80466 -0.0164152 3.85639 -0.0176029ZM3.07616 3.21287C2.75631 3.6277 2.72587 4.06111 2.72557 4.56898C2.72545 4.61454 2.72533 4.66009 2.7252 4.70702C2.72488 4.85952 2.72505 5.01201 2.72522 5.1645C2.72509 5.275 2.72493 5.38549 2.72475 5.49599C2.72433 5.79954 2.72434 6.10308 2.72442 6.40662C2.72443 6.73403 2.72406 7.06143 2.72373 7.38884C2.72317 8.03022 2.72298 8.67161 2.72294 9.313C2.72291 9.83429 2.72277 10.3556 2.72255 10.8769C2.72195 12.3545 2.72163 13.8322 2.72168 15.3099C2.72169 15.4294 2.72169 15.4294 2.72169 15.5513C2.72169 15.6311 2.7217 15.7108 2.7217 15.793C2.72173 17.0861 2.72107 18.3791 2.72011 19.6721C2.71913 20.9996 2.71866 22.327 2.71871 23.6544C2.71874 24.3998 2.71855 25.1451 2.71781 25.8905C2.71719 26.525 2.71704 27.1595 2.71751 27.7941C2.71773 28.1178 2.71773 28.4416 2.71714 28.7653C2.7166 29.0618 2.7167 29.3582 2.7173 29.6546C2.7174 29.7618 2.71728 29.869 2.7169 29.9762C2.70034 31.0343 2.70034 31.0343 3.21287 31.9238C3.66873 32.2753 4.16222 32.2758 4.71143 32.2738C4.77208 32.2739 4.83272 32.2739 4.89521 32.274C5.09799 32.2741 5.30077 32.2737 5.50355 32.2734C5.64908 32.2733 5.79461 32.2734 5.94015 32.2734C6.33501 32.2734 6.72988 32.273 7.12474 32.2725C7.53749 32.2721 7.95023 32.2721 8.36297 32.272C9.14446 32.2718 9.92595 32.2712 10.7074 32.2705C11.7635 32.2696 12.8196 32.2693 13.8757 32.2689C15.5395 32.2682 17.2034 32.2669 18.8672 32.2656C18.8672 28.5886 18.8672 24.9115 18.8672 21.123C17.5137 21.123 16.1601 21.123 14.7656 21.123C14.7656 19.7244 14.7656 18.3258 14.7656 16.8847C16.1191 16.8847 17.4726 16.8847 18.8672 16.8847C18.8788 15.6773 18.8788 15.6773 18.8875 14.4698C18.9061 12.7414 19.2057 10.9952 20.4923 9.72491C20.6605 9.59022 20.6605 9.59022 20.6445 9.43358C20.685 9.41534 20.7256 9.3971 20.7673 9.3783C20.9206 9.29545 21.0168 9.2094 21.1401 9.08751C22.2373 8.11243 23.7039 7.71094 25.1418 7.69629C25.2137 7.69508 25.2856 7.69388 25.3596 7.69263C25.6251 7.68836 25.8905 7.68518 26.156 7.68187C27.0485 7.66918 27.0485 7.66918 27.959 7.65623C27.959 9.05487 27.959 10.4535 27.959 11.8945C26.6003 11.886 26.6003 11.886 26.1758 11.8822C26.0626 11.8818 25.9493 11.8814 25.8361 11.8812C25.7791 11.8805 25.7221 11.8798 25.6633 11.879C24.9857 11.8788 24.2939 11.9684 23.7776 12.4401C23.157 13.0968 23.0938 13.7647 23.0988 14.635C23.0988 14.6923 23.0989 14.7496 23.099 14.8087C23.0993 15.0208 23.1003 15.2328 23.1012 15.4449C23.1033 16.1576 23.1033 16.1576 23.1055 16.8847C24.7297 16.8847 26.3539 16.8847 28.0273 16.8847C27.6889 18.9489 27.6889 18.9489 27.3437 21.0547C25.2458 21.0885 25.2458 21.0885 23.1055 21.123C23.1055 24.8001 23.1055 28.4771 23.1055 32.2656C25.0173 32.2698 25.0173 32.2698 26.9678 32.2742C27.3696 32.2754 27.7715 32.2766 28.1855 32.2779C28.547 32.2784 28.547 32.2784 28.9084 32.2787C29.069 32.2789 29.2295 32.2793 29.39 32.28C29.6336 32.281 29.8773 32.2812 30.121 32.2811C30.192 32.2816 30.263 32.2821 30.3362 32.2826C30.937 32.2809 31.4745 32.2204 31.9238 31.7871C32.2437 31.3723 32.2741 30.9389 32.2744 30.431C32.2746 30.3627 32.2746 30.3627 32.2748 30.2929C32.2751 30.1404 32.2749 29.988 32.2747 29.8355C32.2749 29.725 32.275 29.6145 32.2752 29.504C32.2756 29.2004 32.2756 28.8969 32.2755 28.5933C32.2755 28.2659 32.2759 27.9385 32.2762 27.6111C32.2768 26.9697 32.277 26.3284 32.277 25.687C32.2771 25.1657 32.2772 24.6444 32.2774 24.1231C32.278 22.6454 32.2783 21.1678 32.2783 19.6901C32.2783 19.6104 32.2783 19.5307 32.2783 19.4487C32.2783 19.3689 32.2783 19.2891 32.2783 19.207C32.2782 17.9139 32.2789 16.6209 32.2799 15.3278C32.2808 14.0004 32.2813 12.673 32.2813 11.3456C32.2812 10.6002 32.2814 9.85486 32.2822 9.1095C32.2828 8.47497 32.2829 7.84044 32.2825 7.20591C32.2822 6.88215 32.2822 6.55839 32.2828 6.23464C32.2834 5.9382 32.2833 5.64178 32.2827 5.34535C32.2826 5.23817 32.2827 5.13098 32.2831 5.0238C32.2996 3.96567 32.2996 3.96567 31.7871 3.07616C31.3723 2.75631 30.9389 2.72587 30.431 2.72557C30.3854 2.72545 30.3399 2.72533 30.2929 2.7252C30.1404 2.72488 29.988 2.72505 29.8355 2.72522C29.725 2.72509 29.6145 2.72493 29.504 2.72475C29.2004 2.72433 28.8969 2.72434 28.5933 2.72442C28.2659 2.72443 27.9385 2.72406 27.6111 2.72373C26.9697 2.72317 26.3284 2.72298 25.687 2.72294C25.1657 2.72291 24.6444 2.72277 24.1231 2.72255C22.6454 2.72195 21.1678 2.72163 19.6901 2.72168C19.5706 2.72169 19.5706 2.72169 19.4487 2.72169C19.329 2.7217 19.329 2.7217 19.207 2.7217C17.9139 2.72173 16.6209 2.72107 15.3278 2.72011C14.0004 2.71913 12.673 2.71866 11.3456 2.71872C10.6002 2.71874 9.85486 2.71855 9.1095 2.71781C8.47497 2.71719 7.84044 2.71704 7.20591 2.71751C6.88215 2.71773 6.55839 2.71773 6.23464 2.71714C5.9382 2.7166 5.64178 2.7167 5.34535 2.7173C5.23817 2.7174 5.13098 2.71728 5.0238 2.7169C3.96567 2.70034 3.96567 2.70034 3.07616 3.21287Z" fill="white"/>
</g>
<defs>
<clipPath id="clip0_27_312">
<rect width="35" height="35" fill="white"/>
</clipPath>
</defs>
</svg>
