<svg width="35" height="35" viewBox="0 0 35 35" fill="none" xmlns="http://www.w3.org/2000/svg">
<g clip-path="url(#clip0_27_314)">
<path d="M9.58603 -0.0360386C9.77763 -0.0363725 9.96924 -0.0371109 10.1608 -0.0378233C10.6243 -0.0392916 11.0877 -0.0392967 11.5512 -0.0387375C11.9285 -0.0383042 12.3058 -0.038387 12.6831 -0.0388245C12.7371 -0.0388861 12.7911 -0.0389478 12.8468 -0.0390113C12.9566 -0.0391378 13.0663 -0.0392652 13.1761 -0.0393932C14.2022 -0.0405228 15.2282 -0.0399337 16.2542 -0.038779C17.1894 -0.0377752 18.1245 -0.0387738 19.0596 -0.0407457C20.0237 -0.0427635 20.9879 -0.0435026 21.9521 -0.0428524C22.0615 -0.0427825 22.1709 -0.0427145 22.2803 -0.0426484C22.3342 -0.0426159 22.388 -0.0425833 22.4434 -0.0425497C22.8193 -0.0424029 23.1953 -0.0430662 23.5712 -0.0440683C24.0307 -0.0452763 24.4901 -0.045244 24.9496 -0.0437025C25.1833 -0.0429497 25.4169 -0.0428945 25.6505 -0.0439965C28.3227 -0.0555915 30.5108 0.686746 32.4707 2.52972C32.5111 2.56568 32.5514 2.60163 32.593 2.63867C33.8774 3.83172 34.596 5.56129 34.9317 7.24652C34.9495 7.32985 34.9495 7.32985 34.9677 7.41487C35.0136 7.75784 35.0104 8.09716 35.0105 8.44283C35.011 8.56229 35.011 8.56229 35.0115 8.68416C35.0122 8.90466 35.0127 9.12517 35.013 9.34567C35.0134 9.58377 35.0142 9.82186 35.0149 10.06C35.0166 10.635 35.0176 11.21 35.0185 11.785C35.0187 11.9477 35.019 12.1103 35.0193 12.273C35.021 13.2852 35.0225 14.2975 35.0233 15.3097C35.0236 15.544 35.0238 15.7783 35.024 16.0127C35.024 16.0709 35.0241 16.1291 35.0241 16.1891C35.025 17.13 35.0272 18.071 35.0301 19.0119C35.033 19.98 35.0346 20.9482 35.035 21.9163C35.0352 22.459 35.036 23.0017 35.0383 23.5444C35.0402 24.0072 35.0409 24.4699 35.0402 24.9327C35.0398 25.1681 35.04 25.4035 35.0417 25.6389C35.0581 28.3165 34.3176 30.5071 32.4707 32.4711C32.4348 32.5115 32.3988 32.5518 32.3618 32.5934C31.3958 33.6333 29.9967 34.3561 28.6426 34.727C28.599 34.7391 28.5555 34.7512 28.5106 34.7637C27.483 35.0393 26.4718 35.0397 25.414 35.0369C25.2224 35.0372 25.0308 35.038 24.8392 35.0387C24.3758 35.0401 23.9123 35.0402 23.4489 35.0396C23.0716 35.0392 22.6942 35.0392 22.3169 35.0397C22.2629 35.0397 22.2089 35.0398 22.1533 35.0399C22.0435 35.04 21.9337 35.0401 21.8239 35.0402C20.7979 35.0414 19.7719 35.0408 18.7458 35.0396C17.8107 35.0386 16.8756 35.0396 15.9405 35.0416C14.9763 35.0436 14.0121 35.0444 13.048 35.0437C12.9386 35.0436 12.8291 35.0436 12.7197 35.0435C12.6659 35.0435 12.6121 35.0434 12.5566 35.0434C12.1807 35.0433 11.8048 35.0439 11.4289 35.0449C10.9694 35.0461 10.5099 35.0461 10.0504 35.0446C9.81678 35.0438 9.58319 35.0437 9.34955 35.0448C6.67739 35.0564 4.48921 34.3141 2.52932 32.4711C2.46879 32.4172 2.46879 32.4172 2.40703 32.3622C1.36705 31.3961 0.644522 29.9972 0.273465 28.643C0.255285 28.5777 0.255285 28.5777 0.236738 28.5111C-0.0281634 27.5257 -0.0392927 26.5592 -0.0347155 25.544C-0.0339452 25.3054 -0.0347759 25.0669 -0.0353883 24.8283C-0.0363334 24.3628 -0.0358292 23.8974 -0.0347947 23.4319C-0.0336337 22.8885 -0.0338629 22.3451 -0.0341178 21.8016C-0.0345183 20.8315 -0.0335563 19.8613 -0.0318658 18.8911C-0.0302297 17.9521 -0.029747 17.0131 -0.0304639 16.0741C-0.0312456 15.0484 -0.0313736 14.0226 -0.0303888 12.9969C-0.0302845 12.8874 -0.0301804 12.7778 -0.0300769 12.6682C-0.0300251 12.6143 -0.0299738 12.5604 -0.0299204 12.5049C-0.0295977 12.1271 -0.0297215 11.7493 -0.0300133 11.3714C-0.0303516 10.9105 -0.0299342 10.4496 -0.0285853 9.98875C-0.0279151 9.75408 -0.027556 9.51943 -0.0280992 9.28476C-0.030984 7.49034 -0.0309837 7.49034 0.205106 6.63129C0.218226 6.57847 0.231346 6.52565 0.244864 6.47123C0.808184 4.29292 2.26371 2.36286 4.18944 1.20536C4.8854 0.804788 5.58192 0.486258 6.35745 0.273865C6.40101 0.261757 6.44458 0.249648 6.48946 0.237173C7.51702 -0.0384023 8.52821 -0.0388663 9.58603 -0.0360386ZM4.85354 4.44379C4.80146 4.48934 4.74939 4.5349 4.69573 4.58184C3.63499 5.57272 2.98793 7.06446 2.93307 8.5092C2.9303 8.70407 2.92971 8.89883 2.92988 9.09373C2.92968 9.16818 2.92947 9.24264 2.92926 9.31936C2.92867 9.56813 2.92857 9.81689 2.92847 10.0657C2.92815 10.2443 2.92781 10.423 2.92744 10.6017C2.92651 11.0868 2.9261 11.5718 2.9258 12.0569C2.92561 12.3602 2.92532 12.6636 2.92501 12.967C2.92418 13.8083 2.92347 14.6496 2.92324 15.491C2.92323 15.5448 2.92321 15.5986 2.92319 15.654C2.92318 15.7079 2.92317 15.7618 2.92315 15.8173C2.92312 15.9265 2.92309 16.0358 2.92306 16.145C2.92304 16.1991 2.92303 16.2533 2.92301 16.3091C2.92274 17.1858 2.92155 18.0624 2.91996 18.9391C2.91833 19.841 2.91748 20.7428 2.9174 21.6447C2.91734 22.1503 2.91696 22.656 2.91571 23.1616C2.91465 23.5924 2.91431 24.0232 2.91487 24.4539C2.91514 24.6733 2.91497 24.8926 2.91411 25.1119C2.90717 27.0039 3.14741 28.6737 4.44339 30.1469C4.51172 30.225 4.51172 30.225 4.58144 30.3047C5.54515 31.3364 7.02504 32.0121 8.43506 32.0674C8.63086 32.0702 8.82657 32.0707 9.0224 32.0706C9.0974 32.0708 9.17241 32.071 9.24969 32.0712C9.50072 32.0718 9.75175 32.0719 10.0028 32.072C10.1829 32.0723 10.363 32.0726 10.5432 32.073C11.0325 32.0739 11.5217 32.0744 12.011 32.0747C12.317 32.0748 12.6229 32.0751 12.9289 32.0754C13.7771 32.0763 14.6254 32.077 15.4736 32.0772C15.555 32.0772 15.555 32.0772 15.638 32.0773C15.7196 32.0773 15.7196 32.0773 15.8028 32.0773C15.9129 32.0773 16.0231 32.0774 16.1332 32.0774C16.1879 32.0774 16.2425 32.0774 16.2988 32.0774C17.183 32.0777 18.0672 32.0789 18.9514 32.0805C19.8608 32.0821 20.7702 32.083 21.6795 32.083C22.1895 32.0831 22.6994 32.0835 23.2094 32.0847C23.6438 32.0858 24.0783 32.0861 24.5128 32.0856C24.734 32.0853 24.9552 32.0855 25.1765 32.0863C27.0495 32.0931 28.6885 31.8396 30.1465 30.5571C30.1986 30.5115 30.2507 30.466 30.3043 30.419C31.3651 29.4281 32.0121 27.9364 32.067 26.4917C32.0698 26.2968 32.0703 26.102 32.0702 25.9071C32.0704 25.8327 32.0706 25.7582 32.0708 25.6815C32.0714 25.4327 32.0715 25.184 32.0716 24.9352C32.0719 24.7565 32.0723 24.5778 32.0726 24.3991C32.0735 23.9141 32.074 23.429 32.0743 22.944C32.0744 22.6406 32.0747 22.3373 32.075 22.0339C32.0759 21.1926 32.0766 20.3512 32.0768 19.5099C32.0768 19.4561 32.0768 19.4023 32.0769 19.3469C32.0769 19.293 32.0769 19.2391 32.0769 19.1835C32.0769 19.0743 32.077 18.9651 32.077 18.8559C32.077 18.8017 32.077 18.7475 32.077 18.6917C32.0773 17.8151 32.0785 16.9384 32.0801 16.0618C32.0817 15.1599 32.0826 14.258 32.0826 13.3561C32.0827 12.8505 32.0831 12.3449 32.0843 11.8393C32.0854 11.4085 32.0857 10.9777 32.0852 10.5469C32.0849 10.3276 32.0851 10.1083 32.0859 9.88898C32.0929 7.99699 31.8526 6.32719 30.5567 4.85394C30.5111 4.80186 30.4656 4.74979 30.4186 4.69613C29.4549 3.66448 27.975 2.98877 26.565 2.93347C26.3692 2.93068 26.1735 2.93011 25.9777 2.93028C25.9027 2.93008 25.8276 2.92987 25.7504 2.92966C25.4993 2.92907 25.2483 2.92897 24.9973 2.92887C24.8171 2.92855 24.637 2.92821 24.4569 2.92784C23.9676 2.92691 23.4783 2.9265 22.989 2.9262C22.6831 2.92601 22.3771 2.92572 22.0712 2.92541C21.2229 2.92458 20.3747 2.92387 19.5264 2.92364C19.4722 2.92363 19.4179 2.92361 19.362 2.9236C19.2805 2.92357 19.2805 2.92357 19.1973 2.92355C19.0871 2.92352 18.977 2.92349 18.8668 2.92346C18.8122 2.92344 18.7575 2.92343 18.7013 2.92341C17.817 2.92314 16.9328 2.92195 16.0486 2.92036C15.1393 2.91873 14.2299 2.91788 13.3205 2.9178C12.8106 2.91774 12.3006 2.91736 11.7907 2.91611C11.3562 2.91505 10.9218 2.91471 10.4873 2.91527C10.266 2.91554 10.0448 2.91537 9.82357 2.91451C7.95053 2.90771 6.31153 3.16123 4.85354 4.44379Z" fill="white"/>
<path d="M19.6875 8.95546C19.7567 8.97419 19.7567 8.97419 19.8273 8.99331C21.8968 9.56267 23.8584 10.9103 24.9512 12.7836C24.9792 12.8314 25.0072 12.8792 25.036 12.9285C25.4755 13.6928 25.8117 14.4626 26.0449 15.3129C26.0797 15.4333 26.0797 15.4333 26.1152 15.5561C26.4134 16.8108 26.4015 18.4507 26.0449 19.6879C26.0324 19.734 26.02 19.7802 26.0071 19.8277C25.3893 22.0731 23.923 23.9671 21.9113 25.1307C21.1979 25.5298 20.4754 25.8292 19.6875 26.0453C19.6072 26.0685 19.527 26.0917 19.4443 26.1155C18.1895 26.4137 16.5497 26.4019 15.3125 26.0453C15.2664 26.0328 15.2202 26.0203 15.1727 26.0075C13.1033 25.4381 11.1417 24.0905 10.0488 22.2172C10.0209 22.1693 9.99286 22.1215 9.96403 22.0722C9.52453 21.3079 9.18828 20.5381 8.95509 19.6879C8.93192 19.6076 8.90874 19.5273 8.88486 19.4446C8.58665 18.1899 8.59851 16.55 8.95509 15.3129C8.97383 15.2437 8.97383 15.2437 8.99294 15.1731C9.56231 13.1036 10.9099 11.142 12.7832 10.0492C12.855 10.0072 12.855 10.0072 12.9281 9.96439C13.6925 9.52489 14.4623 9.18865 15.3125 8.95546C15.3928 8.93228 15.4731 8.90911 15.5558 8.88523C16.8105 8.58701 18.4504 8.59887 19.6875 8.95546ZM13.6035 13.1937C13.5515 13.2393 13.4994 13.2849 13.4457 13.3318C12.3685 14.338 11.7681 15.808 11.6788 17.2643C11.6291 18.7962 12.1852 20.2508 13.1934 21.3969C13.2617 21.475 13.2617 21.475 13.3314 21.5547C14.3273 22.6208 15.7953 23.2327 17.2391 23.3248C18.793 23.3472 20.224 22.8384 21.3965 21.807C21.4486 21.7615 21.5007 21.7159 21.5543 21.669C22.6315 20.6627 23.2319 19.1927 23.3212 17.7364C23.3709 16.2046 22.8148 14.75 21.8067 13.6039C21.7611 13.5518 21.7155 13.4997 21.6686 13.4461C20.6727 12.38 19.2048 11.7681 17.7609 11.6759C16.207 11.6536 14.776 12.1623 13.6035 13.1937Z" fill="white"/>
<path d="M27.9576 5.99842C28.0032 6.02671 28.0488 6.055 28.0957 6.08414C28.1434 6.11313 28.191 6.14212 28.2402 6.17199C28.7277 6.50162 29.0335 6.95383 29.1894 7.51969C29.2734 8.25 29.1496 8.87618 28.7181 9.47754C28.5777 9.63494 28.4474 9.7426 28.2709 9.85672C28.1949 9.90682 28.1949 9.90682 28.1173 9.95793C27.5718 10.2716 26.941 10.326 26.3312 10.1814C25.7157 9.98433 25.3436 9.57916 24.9725 9.07059C24.7083 8.52957 24.7036 7.96889 24.8144 7.38297C24.9039 7.13706 25.0173 6.92065 25.1562 6.69937C25.1943 6.63734 25.2324 6.5753 25.2716 6.51139C25.9683 5.83352 27.065 5.52313 27.9576 5.99842Z" fill="white"/>
</g>
<defs>
<clipPath id="clip0_27_314">
<rect width="35" height="35" fill="white"/>
</clipPath>
</defs>
</svg>
