<svg width="35" height="35" viewBox="0 0 35 35" fill="none" xmlns="http://www.w3.org/2000/svg">
<g clip-path="url(#clip0_27_306)">
<path d="M3.76567 -0.0421046C3.88917 -0.042401 4.01267 -0.0428469 4.13617 -0.0434281C4.47346 -0.044584 4.81071 -0.0436241 5.14799 -0.0422991C5.51253 -0.0412409 5.87706 -0.0421616 6.2416 -0.0428285C6.95485 -0.0438198 7.66809 -0.042987 8.38134 -0.0415219C9.21226 -0.039878 10.0432 -0.039998 10.8741 -0.0401757C12.3567 -0.0404277 13.8393 -0.0390059 15.3219 -0.0366722C16.7601 -0.0344094 18.1983 -0.0334419 19.6365 -0.0338684C21.2034 -0.0343309 22.7704 -0.0341624 24.3373 -0.0328185C24.4617 -0.0327119 24.4617 -0.0327119 24.5885 -0.0326032C24.7549 -0.0324602 24.9214 -0.0323159 25.0878 -0.0321702C25.6668 -0.0316991 26.2458 -0.031653 26.8249 -0.031752C27.5305 -0.0318505 28.2361 -0.0311871 28.9417 -0.0295682C29.3016 -0.0287581 29.6615 -0.02827 30.0214 -0.0286684C30.351 -0.0290225 30.6806 -0.028426 31.0102 -0.0270774C31.1293 -0.026754 31.2484 -0.0267731 31.3674 -0.0271738C32.4685 -0.03052 33.3632 0.159023 34.1797 0.957409C34.7023 1.59941 35.0079 2.26622 35.0094 3.09574C35.0096 3.14622 35.0097 3.19671 35.0099 3.24872C35.0105 3.41883 35.0105 3.58893 35.0105 3.75903C35.0108 3.88186 35.0111 4.00468 35.0114 4.1275C35.0123 4.46577 35.0126 4.80403 35.013 5.1423C35.0134 5.50685 35.0142 5.87141 35.0149 6.23596C35.0166 7.1168 35.0176 7.99764 35.0184 8.87848C35.0187 9.12726 35.019 9.37605 35.0192 9.62483C35.021 11.1697 35.0225 12.7145 35.0233 14.2593C35.0235 14.6172 35.0237 14.9751 35.0239 15.333C35.024 15.4219 35.024 15.5109 35.0241 15.6025C35.025 17.0432 35.0272 18.4839 35.0301 19.9246C35.033 21.4036 35.0346 22.8827 35.035 24.3618C35.0352 25.1922 35.036 26.0227 35.0382 26.8531C35.0402 27.5604 35.0409 28.2678 35.0401 28.9751C35.0398 29.3359 35.04 29.6966 35.0417 30.0574C35.0432 30.388 35.0432 30.7187 35.0419 31.0493C35.0417 31.1686 35.0421 31.2878 35.0431 31.4071C35.0518 32.4809 34.8182 33.2765 34.0857 34.0861C33.2156 34.8733 32.3732 35.0518 31.2331 35.0438C31.1095 35.0442 30.9859 35.0447 30.8622 35.0454C30.5246 35.0468 30.1869 35.0461 29.8493 35.0451C29.4843 35.0443 29.1193 35.0455 28.7544 35.0464C28.0402 35.0479 27.3261 35.0476 26.612 35.0466C26.0314 35.0458 25.4509 35.0457 24.8703 35.0461C24.7876 35.0462 24.7049 35.0462 24.6196 35.0463C24.4516 35.0464 24.2835 35.0465 24.1155 35.0466C22.5406 35.0476 20.9658 35.0465 19.391 35.0446C18.0406 35.0431 16.6903 35.0434 15.3399 35.0449C13.7706 35.0468 12.2013 35.0475 10.632 35.0464C10.4646 35.0463 10.2971 35.0462 10.1297 35.0461C10.0061 35.046 10.0061 35.046 9.88008 35.046C9.30043 35.0457 8.72078 35.0462 8.14113 35.047C7.43444 35.0479 6.72776 35.0477 6.02107 35.0458C5.66071 35.0449 5.30037 35.0446 4.94001 35.0457C4.60975 35.0467 4.27954 35.0462 3.94928 35.0444C3.83019 35.044 3.7111 35.0442 3.59202 35.045C2.54666 35.0518 1.68602 34.8394 0.888684 34.1117C0.104953 33.2529 -0.0511712 32.346 -0.0433901 31.2335C-0.0437845 31.1099 -0.0443278 30.9862 -0.0450058 30.8626C-0.0464257 30.5249 -0.0457305 30.1873 -0.0446686 29.8496C-0.0438928 29.4847 -0.0450903 29.1197 -0.0460291 28.7547C-0.0475465 28.0406 -0.0472217 27.3265 -0.0462299 26.6123C-0.045457 26.0318 -0.0453536 25.4512 -0.0457253 24.8707C-0.0457776 24.788 -0.0458301 24.7052 -0.0458841 24.62C-0.0459934 24.452 -0.046104 24.2839 -0.0462163 24.1158C-0.0471903 22.541 -0.0460716 20.9662 -0.0442339 19.3914C-0.0427069 18.041 -0.0429721 16.6906 -0.0445479 15.3402C-0.0463783 13.771 -0.0470965 12.2017 -0.0460476 10.6324C-0.0459387 10.4649 -0.0458313 10.2975 -0.0457253 10.1301C-0.0456725 10.0477 -0.0456197 9.96532 -0.0455654 9.88045C-0.0452707 9.3008 -0.0457677 8.72115 -0.0465728 8.1415C-0.0475328 7.43481 -0.0472692 6.72813 -0.0454515 6.02144C-0.044555 5.66108 -0.0441983 5.30074 -0.0453315 4.94038C-0.0463544 4.61012 -0.0457833 4.2799 -0.0439721 3.94965C-0.0435922 3.83056 -0.0437802 3.71147 -0.0446131 3.59238C-0.0513601 2.54703 0.161011 1.68638 0.888684 0.88905C1.74724 0.105497 2.65338 -0.0508071 3.76567 -0.0421046ZM9.16017 10.5277C9.09558 10.5867 9.03098 10.6456 8.96444 10.7064C7.66448 11.9475 6.66355 13.7156 6.61031 15.5447C6.60898 15.701 6.60874 15.8573 6.60951 16.0136C6.60989 16.0955 6.61028 16.1774 6.61068 16.2618C6.63715 18.1894 7.51137 19.8099 8.81837 21.1918C8.87292 21.2515 8.92746 21.3113 8.98366 21.3728C9.73467 22.1659 10.6453 22.7606 11.6211 23.2426C11.5815 23.65 11.4961 24.0152 11.3714 24.4044C11.3536 24.4613 11.3359 24.5183 11.3175 24.577C11.2611 24.7575 11.204 24.9378 11.1469 25.1182C11.09 25.2983 11.0333 25.4784 10.9769 25.6587C10.942 25.7703 10.9068 25.8818 10.8712 25.9933C10.6245 26.726 10.6245 26.726 10.6641 27.4808C11.7018 27.3784 12.6458 26.4975 13.47 25.9145C13.7293 25.7313 13.9892 25.5492 14.2493 25.3672C14.3652 25.2861 14.481 25.2049 14.5968 25.1236C14.6491 25.0869 14.7014 25.0502 14.7552 25.0124C14.8229 24.9649 14.8229 24.9649 14.892 24.9164C14.9648 24.8661 14.9648 24.8661 15.0391 24.8148C15.127 24.7416 15.127 24.7416 15.2167 24.667C15.5412 24.4917 15.809 24.5107 16.1715 24.5219C16.2419 24.5228 16.3123 24.5236 16.3848 24.5245C16.6099 24.5274 16.8349 24.5321 17.0599 24.5371C20.2809 24.6056 23.473 23.7894 25.8577 21.509C25.9195 21.4494 25.9813 21.3899 26.0449 21.3285C26.0989 21.2788 26.153 21.2291 26.2086 21.1779C27.4394 20.014 28.3316 18.2273 28.3921 16.5239C28.4041 15.631 28.3896 14.7943 28.0957 13.9457C28.0792 13.8977 28.0627 13.8496 28.0457 13.8001C27.2334 11.5118 25.3711 9.79117 23.2229 8.7426C21.4337 7.91003 19.5201 7.50453 17.5513 7.50282C17.4791 7.50275 17.4791 7.50275 17.4055 7.50268C14.4125 7.50721 11.3856 8.47721 9.16017 10.5277Z" fill="white"/>
<path d="M22.3535 13.4671C22.5158 13.5312 22.5158 13.5312 22.6269 13.6721C22.7559 14.0591 22.7706 14.4171 22.7668 14.8225C22.7666 14.8698 22.7664 14.9171 22.7661 14.9658C22.7655 15.0815 22.7646 15.1971 22.7636 15.3128C22.8147 15.2614 22.8657 15.2099 22.9184 15.157C23.1075 14.9666 23.2969 14.7765 23.4863 14.5864C23.5683 14.504 23.6503 14.4216 23.7322 14.3391C23.8498 14.2207 23.9676 14.1025 24.0854 13.9843C24.1221 13.9473 24.1588 13.9102 24.1966 13.8721C24.5237 13.5449 24.5237 13.5449 24.8016 13.5141C25.0695 13.5403 25.1708 13.6238 25.3613 13.8089C25.4727 14.0318 25.4616 14.1765 25.4297 14.4241C25.3007 14.6345 25.1258 14.7979 24.9511 14.971C24.8695 15.0534 24.7879 15.136 24.7063 15.2185C24.4703 15.4565 24.2326 15.6925 23.9941 15.928C24.1072 16.1628 24.2413 16.3572 24.4 16.5646C24.6546 16.9003 24.9067 17.2376 25.1562 17.5772C25.1891 17.6217 25.2219 17.6662 25.2558 17.7121C25.6121 18.1974 25.6121 18.1974 25.5664 18.594C25.3965 18.8668 25.2952 18.9828 24.9853 19.0768C24.7115 19.0719 24.6247 19.023 24.4043 18.8675C24.2651 18.7214 24.2651 18.7214 24.1266 18.547C24.0741 18.4815 24.0217 18.4159 23.9677 18.3484C23.8334 18.1754 23.7033 17.9996 23.5741 17.8228C23.5375 17.773 23.5009 17.7232 23.4631 17.6719C23.3905 17.5726 23.3185 17.4728 23.2472 17.3726C23.214 17.327 23.1808 17.2815 23.1466 17.2346C23.1172 17.1935 23.0878 17.1525 23.0575 17.1102C22.9654 16.9976 22.9654 16.9976 22.7636 17.0218C22.763 17.0697 22.7624 17.1176 22.7617 17.1669C22.758 17.3849 22.7523 17.6028 22.7466 17.8207C22.7456 17.8961 22.7446 17.9715 22.7436 18.0492C22.7268 18.6063 22.7268 18.6063 22.5722 18.8816C22.3463 19.0658 22.1617 19.0925 21.875 19.0725C21.6782 18.9913 21.5739 18.9293 21.457 18.7517C21.376 18.5408 21.378 18.3612 21.3766 18.1354C21.3761 18.0899 21.3757 18.0444 21.3752 17.9976C21.3739 17.8475 21.3736 17.6976 21.3735 17.5475C21.373 17.443 21.3726 17.3385 21.3721 17.2339C21.3713 17.0149 21.371 16.7959 21.3711 16.5769C21.3711 16.2966 21.3693 16.0164 21.3669 15.7361C21.3654 15.5202 21.3651 15.3044 21.3652 15.0885C21.365 14.9852 21.3644 14.8819 21.3634 14.7785C21.362 14.6339 21.3624 14.4893 21.3632 14.3447C21.363 14.2625 21.3629 14.1803 21.3627 14.0956C21.4031 13.8346 21.4868 13.7221 21.6699 13.5354C21.8887 13.426 22.1156 13.443 22.3535 13.4671Z" fill="white"/>
<path d="M15.7055 13.5262C16.1064 13.9048 16.2727 14.5236 16.449 15.0344C16.6934 15.7265 16.9659 16.4052 17.2483 17.0826C17.6557 18.0655 17.6557 18.0655 17.6581 18.5079C17.6592 18.5583 17.6604 18.6087 17.6615 18.6607C17.6297 18.8371 17.5717 18.8946 17.4316 19.0035C17.1759 19.0888 16.9443 19.1242 16.6797 19.0719C16.2994 18.7508 16.2863 18.4899 16.1328 17.9781C15.5012 17.9781 14.8695 17.9781 14.2187 17.9781C14.1511 18.2037 14.0834 18.4293 14.0137 18.6617C13.8641 18.9095 13.8641 18.9095 13.6719 19.0719C13.3915 19.1396 13.1829 19.099 12.9242 18.9779C12.7832 18.8668 12.7832 18.8668 12.7148 18.7301C12.6657 17.826 13.1803 16.9103 13.5191 16.0939C13.7566 15.5186 13.9746 14.9389 14.1691 14.3476C14.2884 14.001 14.4017 13.7703 14.6972 13.5348C15.0325 13.423 15.3679 13.4188 15.7055 13.5262ZM15.1758 15.2438C14.9474 15.761 14.7661 16.2673 14.6289 16.816C15.0124 16.816 15.3959 16.816 15.791 16.816C15.6105 16.2972 15.4301 15.7783 15.2441 15.2438C15.2216 15.2438 15.199 15.2438 15.1758 15.2438Z" fill="white"/>
<path d="M10.3991 13.4262C10.4798 13.4262 10.5604 13.4262 10.6435 13.4262C10.8138 13.4266 10.9841 13.4278 11.1544 13.4297C11.4151 13.4326 11.6755 13.4325 11.9362 13.4321C12.1017 13.4328 12.2673 13.4337 12.4328 13.4347C12.5497 13.4348 12.5497 13.4348 12.6689 13.4348C12.7781 13.4364 12.7781 13.4364 12.8895 13.4381C12.9532 13.4387 13.017 13.4392 13.0828 13.4398C13.3411 13.4787 13.5321 13.5842 13.6975 13.7872C13.7632 14.0303 13.7436 14.2514 13.6719 14.4922C13.4535 14.7178 13.2458 14.7643 12.9341 14.7723C12.8339 14.7718 12.7338 14.771 12.6336 14.7699C12.5824 14.7696 12.5312 14.7693 12.4784 14.7689C12.3521 14.7681 12.2258 14.7669 12.0996 14.7656C12.1007 14.8081 12.1019 14.8505 12.1031 14.8943C12.1151 15.3379 12.126 15.7815 12.1363 16.2251C12.1403 16.3905 12.1445 16.5558 12.1491 16.7212C12.1555 16.9594 12.161 17.1976 12.1663 17.4359C12.1685 17.5093 12.1707 17.5828 12.173 17.6584C12.1827 18.1502 12.1756 18.5822 11.8945 19.0039C11.609 19.0991 11.3418 19.1147 11.0528 19.021C10.8663 18.8828 10.8112 18.7212 10.7714 18.4958C10.7127 17.7348 10.7408 16.9761 10.7623 16.214C10.766 16.0731 10.7696 15.9323 10.7731 15.7914C10.7819 15.4495 10.7912 15.1075 10.8008 14.7656C10.6895 14.7692 10.6895 14.7692 10.5759 14.7728C10.4771 14.7747 10.3783 14.7766 10.2795 14.7784C10.2308 14.7801 10.1821 14.7819 10.1319 14.7836C9.80265 14.7882 9.5824 14.7422 9.29685 14.5605C9.17434 14.3634 9.15958 14.2453 9.16441 14.0137C9.36241 13.38 9.83036 13.418 10.3991 13.4262Z" fill="white"/>
<path d="M18.8672 13.4666C19.0593 13.5892 19.1755 13.6729 19.2774 13.8767C19.2836 14.001 19.2854 14.1255 19.2851 14.2499C19.2851 14.3279 19.2851 14.4059 19.2851 14.4863C19.2848 14.5708 19.2844 14.6554 19.284 14.7424C19.2839 14.8287 19.2838 14.915 19.2837 15.0039C19.2834 15.2334 19.2828 15.4629 19.2821 15.6924C19.2814 15.9265 19.281 16.1607 19.2807 16.3948C19.2799 16.8543 19.2788 17.3137 19.2774 17.7732C19.343 17.7716 19.343 17.7716 19.41 17.77C19.6093 17.7657 19.8086 17.763 20.008 17.7604C20.1113 17.7578 20.1113 17.7578 20.2166 17.7552C20.8486 17.7489 20.8486 17.7489 21.1231 17.9783C21.2303 18.0856 21.2107 18.193 21.2171 18.3415C21.2147 18.5912 21.2118 18.6393 21.0376 18.8328C20.6148 19.0634 20.1736 19.0164 19.7019 19.0164C19.5603 19.0165 19.4187 19.0177 19.2771 19.019C19.1871 19.0192 19.0972 19.0193 19.0045 19.0194C18.9224 19.0197 18.8404 19.02 18.7559 19.0203C18.5132 19.0028 18.3355 18.9709 18.1153 18.867C17.9113 18.5994 17.8841 18.3972 17.8826 18.0651C17.8821 18.0202 17.8816 17.9754 17.8811 17.9292C17.8799 17.7818 17.8801 17.6344 17.8805 17.487C17.8802 17.384 17.8799 17.2811 17.8794 17.1782C17.8788 16.9629 17.879 16.7475 17.8797 16.5321C17.8805 16.2565 17.8791 15.9809 17.8771 15.7053C17.8758 15.4929 17.8759 15.2805 17.8762 15.0681C17.8763 14.9665 17.8758 14.8649 17.875 14.7633C17.874 14.6211 17.8747 14.479 17.8759 14.3368C17.8759 14.256 17.8759 14.1752 17.8759 14.092C17.9171 13.8334 18.0023 13.7204 18.1836 13.5349C18.4025 13.4255 18.6297 13.4325 18.8672 13.4666Z" fill="white"/>
</g>
<defs>
<clipPath id="clip0_27_306">
<rect width="35" height="35" fill="white"/>
</clipPath>
</defs>
</svg>
