<svg width="26" height="26" viewBox="0 0 26 26" fill="none" xmlns="http://www.w3.org/2000/svg">
<path d="M12.2126 0.0344928C9.56281 0.365298 7.35279 2.12236 6.45684 4.60611C5.83782 6.32522 5.95728 8.38597 6.76092 9.98577C7.22247 10.9023 8.04783 11.9055 8.80804 12.4587C9.0904 12.6702 9.13384 12.719 9.05239 12.7515C8.99809 12.7732 8.7103 12.8817 8.41165 12.9901C6.36996 13.7331 4.25226 15.257 2.87847 16.9706C1.08114 19.2158 0.0168569 22.0954 0.000566871 24.7635C-0.00486313 25.539 0.0222869 25.6312 0.369807 25.8861L0.516417 26H13H25.4836L25.6302 25.8861C25.9777 25.6312 26.0049 25.5445 25.9994 24.7364C25.9723 22.0737 24.908 19.1995 23.1161 16.9706C21.726 15.2353 19.6355 13.7277 17.5884 12.9901C17.2897 12.8817 17.0019 12.7732 16.9476 12.7515C16.8716 12.719 16.9096 12.6702 17.1757 12.4749C17.6535 12.1279 18.4409 11.2981 18.7775 10.7775C19.1793 10.1593 19.3857 9.73089 19.5975 9.08012C20.5206 6.27099 19.5377 3.17443 17.1485 1.36314C16.687 1.00522 15.4978 0.419528 14.9548 0.267683C14.1349 0.0399158 12.9511 -0.0576989 12.2126 0.0344928ZM14.2543 1.88917C15.2046 2.13321 15.9756 2.5779 16.6707 3.27205C17.3766 3.97162 17.8056 4.73084 18.0608 5.70699C18.2345 6.36318 18.2345 7.5454 18.0608 8.18532C17.7893 9.18858 17.3929 9.86646 16.6653 10.5986C15.7041 11.5584 14.629 12.0411 13.2932 12.1279C11.0941 12.2634 8.98723 10.9294 8.17272 8.88489C7.88493 8.16363 7.81977 7.80571 7.81977 6.93802C7.81977 6.1083 7.91208 5.60395 8.17815 4.95861C8.52025 4.15058 9.24244 3.22324 9.92662 2.74059C10.5674 2.27963 11.409 1.92713 12.1855 1.79156C12.6416 1.71021 13.7711 1.76444 14.2543 1.88917ZM14.9005 14.0368C19.011 14.758 22.3559 17.616 23.6971 21.5531C23.936 22.2473 24.1587 23.2614 24.2184 23.9013L24.2564 24.2917H13H1.7436L1.78161 23.8959C1.84134 23.2614 2.06397 22.2473 2.30289 21.5531C3.70383 17.4424 7.29849 14.514 11.6153 13.9609C12.4516 13.8524 14.0751 13.8904 14.9005 14.0368Z" fill="white"/>
</svg>
