<svg width="86" height="86" viewBox="0 0 86 86" fill="none" xmlns="http://www.w3.org/2000/svg">
<g clip-path="url(#clip0_187_611)">
<path d="M0 42.6667V85.3333H42.6667H85.3333V42.6667V5.72205e-06H42.6667H0V42.6667ZM42.4 13.6C44.9333 16.1333 44.2667 20.4 39.4667 30.8C36.9333 36.2667 33.3333 45.3333 31.3333 50.9333C27.4667 61.8667 25.0667 63.7333 22.5333 58.1333C21.3333 55.7333 21.6 53.2 23.3333 47.2C27.4667 32.8 37.2 12 39.7333 12C40.4 12 41.4667 12.6667 42.4 13.6ZM30.4 16.5333C31.0667 19.7333 27.0667 25.3333 24.1333 25.3333C20.6667 25.3333 20 22.8 22.1333 18.4C24.8 13.0667 29.6 12 30.4 16.5333ZM58.1333 17.8667C58.5333 19.6 56.9333 24.6667 54.2667 30.6667C51.8667 36.1333 48.1333 45.3333 46 50.9333C42.2667 61.3333 40.4 63.0667 37.3333 59.3333C35.0667 56.6667 36.4 48.9333 41.3333 36.1333C48.8 16.8 55.8667 9.06667 58.1333 17.8667ZM23.4667 30C23.8667 31.0667 22 38.5333 19.3333 46.6667C15.4667 58.4 14 61.3333 11.8667 61.3333C7.86667 61.3333 7.33333 55.6 10.6667 45.4667C12.2667 40.4 14.6667 34.4 16.1333 32.1333C18.8 27.7333 22.2667 26.6667 23.4667 30ZM64.6667 33.3333C66.9333 35.7333 66.8 36.1333 62.2667 43.6C59.6 47.8667 57.7333 51.6 58.1333 51.8667C59.2 52.9333 64.6667 46.8 68.6667 40C72.6667 33.3333 75.2 32.1333 77.7333 36.1333C79.8667 39.4667 72.9333 52.9333 65.4667 60C58.5333 66.5333 45.7333 74.1333 44.2667 72.6667C43.7333 72.1333 45.2 70.5333 47.3333 68.9333C53.8667 64.1333 59.6 58.5333 56.9333 59.4667C53.8667 60.5333 49.3333 56.5333 49.3333 52.8C49.3333 47.3333 58.4 30.6667 61.3333 30.6667C61.8667 30.6667 63.3333 31.8667 64.6667 33.3333ZM74.6667 60.5333C74.6667 62 72.1333 62.5333 71.3333 61.3333C70.9333 60.6667 71.4667 60 72.5333 60C73.7333 60 74.6667 60.2667 74.6667 60.5333Z" fill="#D9261C"/>
</g>
<defs>
<clipPath id="clip0_187_611">
<rect width="85.3333" height="85.3333" fill="white"/>
</clipPath>
</defs>
</svg>
