<?xml version="1.0" standalone="no"?>
<!DOCTYPE svg PUBLIC "-//W3C//DTD SVG 20010904//EN"
 "http://www.w3.org/TR/2001/REC-SVG-20010904/DTD/svg10.dtd">
<svg version="1.0" xmlns="http://www.w3.org/2000/svg"
 width="700.000000pt" height="394.000000pt" viewBox="0 0 700.000000 394.000000"
 preserveAspectRatio="xMidYMid meet">

<g transform="translate(0.000000,394.000000) scale(0.100000,-0.100000)"
fill="#000000" stroke="none">
<path d="M3230 3804 c-100 -95 -274 -376 -380 -614 -389 -869 -660 -1675 -660
-1960 0 -125 43 -294 88 -343 29 -32 112 -68 169 -74 46 -5 57 -3 78 17 31 29
72 144 131 361 83 312 158 522 312 886 49 114 141 330 204 478 63 149 130 308
148 355 18 47 72 167 121 267 101 209 109 233 109 328 0 79 -16 120 -80 214
-108 160 -147 174 -240 85z"/>
<path d="M4109 3735 c-75 -41 -435 -696 -627 -1140 -248 -576 -403 -1138 -406
-1470 -1 -104 0 -113 28 -160 48 -81 111 -142 172 -165 72 -26 98 -25 122 5
27 34 185 435 270 685 95 280 220 611 308 818 82 190 211 469 254 547 70 126
161 317 186 390 17 51 29 110 32 162 4 75 2 88 -22 138 -17 34 -50 75 -88 110
-98 88 -169 113 -229 80z"/>
<path d="M2455 3722 c-249 -86 -413 -396 -312 -591 33 -64 76 -91 146 -91 82
1 138 35 237 148 93 106 127 163 150 253 18 72 14 176 -10 234 -27 63 -111 82
-211 47z"/>
<path d="M2068 2826 c-77 -21 -149 -78 -229 -184 -98 -130 -204 -392 -357
-887 -114 -367 -129 -424 -144 -540 -15 -118 -2 -211 43 -303 45 -92 85 -116
204 -120 67 -3 94 0 102 10 16 21 99 235 126 328 14 47 44 157 68 245 47 178
103 351 209 655 152 431 182 530 187 615 5 72 3 83 -19 115 -23 34 -97 81
-128 79 -8 0 -36 -6 -62 -13z"/>
<path d="M4540 2674 c-59 -50 -346 -517 -473 -770 -68 -136 -147 -390 -172
-552 -18 -123 -3 -173 97 -319 73 -106 135 -143 239 -143 67 0 173 32 269 80
34 17 60 25 60 19 0 -78 -518 -529 -890 -776 -175 -116 -167 -109 -154 -123 8
-8 43 -11 107 -8 l94 3 157 77 c724 358 1398 1044 1687 1719 63 148 120 386
105 443 -14 55 -197 226 -242 226 -66 0 -122 -66 -248 -297 -207 -377 -381
-624 -554 -784 -73 -67 -184 -149 -203 -149 -5 0 -16 11 -24 24 -13 20 -14 32
-6 63 17 59 155 308 285 513 136 215 209 355 227 435 12 54 11 60 -12 104 -33
63 -143 177 -204 212 -63 36 -104 37 -145 3z"/>
</g>
</svg>
