<?xml version="1.0" encoding="UTF-8"?>
<!DOCTYPE svg PUBLIC "-//W3C//DTD SVG 1.1//EN" "http://www.w3.org/Graphics/SVG/1.1/DTD/svg11.dtd">
<svg xmlns="http://www.w3.org/2000/svg" version="1.1" width="200px" height="200px" style="shape-rendering:geometricPrecision; text-rendering:geometricPrecision; image-rendering:optimizeQuality; fill-rule:evenodd; clip-rule:evenodd" xmlns:xlink="http://www.w3.org/1999/xlink">
<g><path style="opacity:1" fill="#d9271d" d="M -0.5,-0.5 C 66.1667,-0.5 132.833,-0.5 199.5,-0.5C 199.5,66.1667 199.5,132.833 199.5,199.5C 132.833,199.5 66.1667,199.5 -0.5,199.5C -0.5,132.833 -0.5,66.1667 -0.5,-0.5 Z"/></g>
<g><path style="opacity:1" fill="#fefcfb" d="M 91.5,28.5 C 100.189,30.7157 104.023,36.3824 103,45.5C 87.8717,76.8902 74.705,109.057 63.5,142C 57.1367,143.401 53.3034,140.901 52,134.5C 51.1609,127.433 51.4942,120.433 53,113.5C 60.9869,87.5416 71.3202,62.5416 84,38.5C 86.2657,34.958 88.7657,31.6247 91.5,28.5 Z"/></g>
<g><path style="opacity:1" fill="#fefbfb" d="M 123.5,32.5 C 133.577,33.751 137.743,39.4177 136,49.5C 121.362,79.9401 108.529,111.107 97.5,143C 95.5,143.667 93.5,143.667 91.5,143C 86.2199,139.773 83.8866,135.106 84.5,129C 87.3015,108.928 93.1348,89.7609 102,71.5C 108.164,57.83 115.33,44.83 123.5,32.5 Z"/></g>
<g><path style="opacity:1" fill="#fef9f9" d="M 62.5,32.5 C 65.6516,31.9586 68.1516,32.9586 70,35.5C 70.6582,39.5715 70.3248,43.5715 69,47.5C 65.8689,51.6328 62.3689,55.4662 58.5,59C 50.4865,58.8788 47.3198,54.7122 49,46.5C 51.6873,39.981 56.1873,35.3143 62.5,32.5 Z"/></g>
<g><path style="opacity:1" fill="#fefbfb" d="M 46.5,65.5 C 53.6319,65.8021 56.4652,69.4688 55,76.5C 47.4682,98.4317 39.9682,120.265 32.5,142C 26.4144,144.067 22.2477,142.233 20,136.5C 18.2148,131.19 18.2148,125.856 20,120.5C 24.5797,103.752 30.913,87.7522 39,72.5C 41.3959,69.9334 43.8959,67.6 46.5,65.5 Z"/></g>
<g><path style="opacity:1" fill="#fefbfb" d="M 140.5,71.5 C 153.216,74.605 156.383,81.9384 150,93.5C 144.499,101.164 139.499,109.164 135,117.5C 134.506,119.134 134.34,120.801 134.5,122.5C 136.308,122.509 137.975,122.009 139.5,121C 142.667,117.833 145.833,114.667 149,111.5C 156.892,100.606 164.392,89.4394 171.5,78C 177.519,78.8481 181.185,82.3481 182.5,88.5C 177.528,108.951 167.528,126.451 152.5,141C 139.188,152.631 124.521,162.298 108.5,170C 106.5,170.667 104.5,170.667 102.5,170C 101.289,169.107 101.289,168.274 102.5,167.5C 116.458,158.67 129.124,148.17 140.5,136C 135.409,137.935 130.076,138.935 124.5,139C 118.766,135.359 115.766,130.192 115.5,123.5C 120.097,104.308 128.43,86.9751 140.5,71.5 Z"/></g>
<g><path style="opacity:1" fill="#ea8077" d="M 165.5,149.5 C 162.755,144.631 164.255,141.298 170,139.5C 175.138,140.976 176.805,144.31 175,149.5C 171.704,153.457 168.537,153.457 165.5,149.5 Z"/></g>
<g><path style="opacity:1" fill="#d92b20" d="M 167.5,142.5 C 167.5,144.833 167.5,147.167 167.5,149.5C 166.833,149.5 166.167,149.5 165.5,149.5C 165.338,147.473 165.505,145.473 166,143.5C 166.383,142.944 166.883,142.611 167.5,142.5 Z"/></g>
<g><path style="opacity:1" fill="#f0a9a5" d="M 167.5,142.5 C 169.167,142.5 170.833,142.5 172.5,142.5C 172.5,143.5 172.5,144.5 172.5,145.5C 171.595,146.702 171.595,148.036 172.5,149.5C 171.288,148.77 170.288,147.77 169.5,146.5C 168.824,147.602 168.158,148.602 167.5,149.5C 167.5,147.167 167.5,144.833 167.5,142.5 Z"/></g>
<g><path style="opacity:1" fill="#d9281e" d="M 168.5,143.5 C 169.675,143.281 170.675,143.614 171.5,144.5C 169.948,145.798 168.948,145.465 168.5,143.5 Z"/></g>
<g><path style="opacity:1" fill="#d9291e" d="M 172.5,149.5 C 171.595,148.036 171.595,146.702 172.5,145.5C 173.222,145.082 173.722,144.416 174,143.5C 174.941,145.989 174.441,147.989 172.5,149.5 Z"/></g>
<g><path style="opacity:1" fill="#d9281e" d="M 172.5,149.5 C 170.833,150.833 169.167,150.833 167.5,149.5C 168.158,148.602 168.824,147.602 169.5,146.5C 170.288,147.77 171.288,148.77 172.5,149.5 Z"/></g>
</svg>
